<?xml version="1.0" encoding="utf-8"?>
<!-- Generator: Adobe Illustrator 24.1.1, SVG Export Plug-In . SVG Version: 6.00 Build 0)  -->
<svg version="1.1" id="Layer_1" xmlns="http://www.w3.org/2000/svg" xmlns:xlink="http://www.w3.org/1999/xlink" x="0px" y="0px"
	 viewBox="0 0 120.7 58" enable-background="new 0 0 120.7 58" xml:space="preserve">
<g>
	<g>
		<g>
			<polygon fill-rule="evenodd" clip-rule="evenodd" fill="#FFFFFF" points="30.34,46.6 31.21,47.32 32.22,46.82 31.81,47.86 
				32.59,48.67 31.47,48.6 30.94,49.6 30.66,48.51 29.55,48.32 30.5,47.72 			"/>
			<polygon fill-rule="evenodd" clip-rule="evenodd" fill="#FFFFFF" points="26.45,26.63 26.95,27.94 28.35,28.01 27.26,28.89 
				27.62,30.24 26.45,29.49 25.27,30.24 25.63,28.89 24.54,28.01 25.94,27.94 			"/>
			<polygon fill-rule="evenodd" clip-rule="evenodd" fill="#FFFFFF" points="72.64,53.38 72.6,54.78 73.86,55.39 72.52,55.78 
				72.32,57.16 71.53,56.01 70.16,56.26 71.01,55.15 70.35,53.92 71.66,54.39 			"/>
			<polygon fill-rule="evenodd" clip-rule="evenodd" fill="#FFFFFF" points="96.99,12.49 98.13,13.31 99.34,12.61 98.91,13.94 
				99.94,14.88 98.54,14.88 97.97,16.16 97.53,14.83 96.15,14.68 97.28,13.86 			"/>
			<polygon fill-rule="evenodd" clip-rule="evenodd" fill="#FFFFFF" points="94.32,54.14 95.19,53.42 94.89,52.33 95.84,52.93 
				96.79,52.31 96.51,53.4 97.39,54.11 96.27,54.18 95.88,55.24 95.46,54.19 			"/>
			<path fill-rule="evenodd" clip-rule="evenodd" fill="#29334E" d="M3.46,22.91c0,0,2.22-2.13,5.14-3.25
				c2.92-1.14,5.43-0.43,5.43-0.43s0.67-5.57,6.98-5.95c6.33-0.38,7.47,3.01,7.47,3.01s0.65-9.44,9.34-11.33
				c8.68-1.89,11.34,6.19,11.85,8.42c0.51,2.25,0.03,4.98,0.03,4.98s0.81-0.33,4.68,0.62c3.87,0.94,5,3.59,5,3.59L3.46,22.91z"/>
			<path fill-rule="evenodd" clip-rule="evenodd" fill="#29334E" d="M56.1,43.61c0,0,2.52-2.41,5.83-3.69
				c3.31-1.3,6.16-0.49,6.16-0.49s0.76-6.32,7.92-6.75c7.18-0.43,8.48,3.42,8.48,3.42s0.74-10.71,10.6-12.85
				c9.85-2.14,12.87,7.02,13.45,9.56c0.58,2.56,0.04,5.65,0.04,5.65s0.92-0.38,5.31,0.7c4.39,1.06,5.67,4.07,5.67,4.07L56.1,43.61z"
				/>
			<g>
				<polygon fill-rule="evenodd" clip-rule="evenodd" fill="#67728E" points="13.61,42.92 24.54,35.89 14.62,44.35 				"/>
				<path fill-rule="evenodd" clip-rule="evenodd" fill="#FFFFFF" d="M13.87,42.78c0.47-0.15,0.98,0.13,1.11,0.6
					c0.14,0.48-0.14,0.98-0.61,1.13c-0.48,0.14-0.98-0.14-1.11-0.61C13.11,43.41,13.39,42.91,13.87,42.78L13.87,42.78z"/>
			</g>
			<g>
				<polygon fill-rule="evenodd" clip-rule="evenodd" fill="#67728E" points="80.78,16.71 91.71,9.68 81.79,18.14 				"/>
				<path fill-rule="evenodd" clip-rule="evenodd" fill="#FFFFFF" d="M81.04,16.56c0.47-0.15,0.98,0.13,1.11,0.6
					c0.14,0.48-0.14,0.98-0.61,1.13c-0.48,0.14-0.98-0.14-1.11-0.61C80.28,17.2,80.56,16.7,81.04,16.56L81.04,16.56z"/>
			</g>
			<polygon fill-rule="evenodd" clip-rule="evenodd" fill="#FFFFFF" points="53.79,50 53.78,50.6 54.32,50.86 53.74,51.03 
				53.66,51.63 53.32,51.13 52.72,51.24 53.09,50.76 52.81,50.23 53.37,50.43 			"/>
			<path fill-rule="evenodd" clip-rule="evenodd" fill="#29334E" d="M24.54,37.42c0,0,1.05-1,2.43-1.54c1.38-0.54,2.56-0.2,2.56-0.2
				s0.31-2.63,3.3-2.81c2.99-0.18,3.53,1.42,3.53,1.42s0.31-4.46,4.42-5.35c4.1-0.89,5.36,2.92,5.6,3.98
				c0.24,1.06,0.01,2.35,0.01,2.35s0.38-0.16,2.21,0.29c1.83,0.44,2.36,1.69,2.36,1.69L24.54,37.42z"/>
			<g>
				<path fill-rule="evenodd" clip-rule="evenodd" fill="#F9F5ED" d="M58.48,45.71c10.78,0,19.58-8.79,19.58-19.58
					S69.26,6.55,58.48,6.55S38.9,15.35,38.9,26.13S47.7,45.71,58.48,45.71L58.48,45.71z"/>
				<path fill-rule="evenodd" clip-rule="evenodd" fill="#FFFFFF" d="M55.36,45.46c-9.33-1.49-16.46-9.58-16.46-19.33
					c0-10.16,7.74-18.51,17.65-19.48c9.33,1.49,16.46,9.58,16.46,19.33C73.01,36.14,65.27,44.49,55.36,45.46L55.36,45.46z"/>
				<path fill-rule="evenodd" clip-rule="evenodd" fill="#F9F5ED" d="M45.88,37.11c0.33-0.4,1.49,0.04,2.6,0.96
					c1.11,0.92,1.74,1.99,1.42,2.39c-0.33,0.39-1.49-0.04-2.6-0.96C46.18,38.58,45.55,37.51,45.88,37.11L45.88,37.11z"/>
				<path fill-rule="evenodd" clip-rule="evenodd" fill="#F9F5ED" d="M52.35,37.63c0.23-0.46,1.46-0.31,2.76,0.33
					c1.3,0.64,2.16,1.53,1.93,1.99c-0.22,0.46-1.46,0.31-2.76-0.33C52.99,38.97,52.12,38.08,52.35,37.63L52.35,37.63z"/>
				<path fill-rule="evenodd" clip-rule="evenodd" fill="#F9F5ED" d="M68.98,20.86c0.84,0.07,1.55,1.41,1.57,3
					c0.03,1.58-0.64,2.8-1.48,2.73c-0.84-0.07-1.55-1.42-1.57-3C67.47,22.01,68.14,20.78,68.98,20.86L68.98,20.86z"/>
				<path fill-rule="evenodd" clip-rule="evenodd" fill="#F9F5ED" d="M61.86,12.1c0.15-0.49,1.39-0.56,2.77-0.15
					c1.39,0.41,2.39,1.14,2.25,1.64c-0.15,0.49-1.39,0.55-2.77,0.14C62.71,13.32,61.71,12.59,61.86,12.1L61.86,12.1z"/>
				<path fill-rule="evenodd" clip-rule="evenodd" fill="#F9F5ED" d="M49.05,17.57c-0.32-1.1,0.4-2.53,1.62-3.22
					c1.22-0.68,2.46-0.35,2.78,0.75c0.32,1.1-0.4,2.53-1.62,3.22C50.6,19.01,49.36,18.67,49.05,17.57L49.05,17.57z"/>
				<path fill-rule="evenodd" clip-rule="evenodd" fill="#F9F5ED" d="M42.07,22.87c0.46-0.01,0.83,1.02,0.85,2.3
					s-0.35,2.31-0.8,2.32c-0.45,0.01-0.83-1.03-0.84-2.3C41.27,23.91,41.62,22.87,42.07,22.87L42.07,22.87z"/>
				<path fill-rule="evenodd" clip-rule="evenodd" fill="#EAD9D3" d="M71.37,36.59c-0.28-0.13,0.17-1.46,1-2.98
					c0.83-1.51,1.74-2.64,2.01-2.51c0.28,0.13-0.17,1.46-1,2.98C72.55,35.59,71.64,36.72,71.37,36.59L71.37,36.59z"/>
				<path fill-rule="evenodd" clip-rule="evenodd" fill="#F9F5ED" d="M54.89,33.66c-0.03,0.01-0.06,0.02-0.1,0.03
					c-2.32,0.66-4.77-0.84-5.5-3.36c-0.65-2.26,0.33-4.57,2.21-5.5c0.03-0.01,0.06-0.02,0.1-0.03c2.32-0.67,4.78,0.83,5.5,3.35
					C57.75,30.42,56.77,32.73,54.89,33.66L54.89,33.66z"/>
			</g>
			<polygon fill-rule="evenodd" clip-rule="evenodd" fill="#FFFFFF" points="87.9,44.62 87.86,45.92 89.02,46.48 87.79,46.84 
				87.61,48.12 86.88,47.05 85.61,47.28 86.39,46.25 85.78,45.12 87,45.56 			"/>
			<polygon fill-rule="evenodd" clip-rule="evenodd" fill="#FFFFFF" points="81.32,25.9 81.9,26.31 82.51,25.95 82.3,26.63 
				82.83,27.1 82.12,27.11 81.84,27.76 81.61,27.09 80.9,27.02 81.47,26.6 			"/>
		</g>
	</g>
</g>
</svg>
