<?xml version="1.0" encoding="utf-8"?>
<!-- Generator: Adobe Illustrator 24.1.1, SVG Export Plug-In . SVG Version: 6.00 Build 0)  -->
<svg version="1.1" xmlns="http://www.w3.org/2000/svg" xmlns:xlink="http://www.w3.org/1999/xlink" x="0px" y="0px"
	 viewBox="0 0 231.15 90.21" enable-background="new 0 0 231.15 90.21" xml:space="preserve">
<g id="Layer_1">
</g>
<g id="OBJECTS">
	<g>
		<g>
			<g>
				
					<rect x="23.7" y="53.37" transform="matrix(0.7071 -0.7071 0.7071 0.7071 -34.7553 41.9386)" fill="none" stroke="#010101" stroke-linecap="round" stroke-miterlimit="10" width="19.1" height="19.1"/>
				
					<rect x="189.01" y="53.37" transform="matrix(0.7071 -0.7071 0.7071 0.7071 13.6648 158.8348)" fill="none" stroke="#010101" stroke-linecap="round" stroke-miterlimit="10" width="19.1" height="19.1"/>
			</g>
			<polygon fill="#00A750" points="215.28,79.69 16.53,79.69 31.97,62.92 16.53,46.15 215.28,46.15 199.84,62.92 			"/>
			<g>
				<g>
					
						<line fill="none" stroke="#010101" stroke-linecap="round" stroke-miterlimit="10" x1="4.91" y1="40.53" x2="83.47" y2="40.53"/>
					
						<line fill="none" stroke="#010101" stroke-linecap="round" stroke-miterlimit="10" x1="148.34" y1="40.53" x2="226.9" y2="40.53"/>
				</g>
				<g>
					
						<line fill="none" stroke="#010101" stroke-linecap="round" stroke-miterlimit="10" x1="4.91" y1="85.32" x2="83.47" y2="85.32"/>
					
						<line fill="none" stroke="#010101" stroke-linecap="round" stroke-miterlimit="10" x1="148.34" y1="85.32" x2="226.9" y2="85.32"/>
				</g>
			</g>
		</g>
		<g>
			<path fill="#FFCE09" d="M116.48,2.88l5.67,11.49c0.09,0.19,0.27,0.32,0.48,0.35l12.67,1.84c0.53,0.08,0.73,0.72,0.35,1.09
				l-9.17,8.94c-0.15,0.15-0.22,0.36-0.18,0.57l2.17,12.62c0.09,0.52-0.46,0.92-0.93,0.67l-11.34-5.96c-0.19-0.1-0.41-0.1-0.6,0
				l-11.34,5.96c-0.47,0.25-1.02-0.15-0.93-0.67l2.17-12.62c0.04-0.21-0.03-0.42-0.18-0.57l-9.17-8.94
				c-0.38-0.37-0.17-1.02,0.35-1.09l12.67-1.84c0.21-0.03,0.39-0.16,0.48-0.35l5.67-11.49C115.57,2.4,116.24,2.4,116.48,2.88z"/>
			<g>
				<path fill="#FFDC54" d="M115.9,5.53l-5.05,9.78c-0.26,0.51-0.77,0.86-1.35,0.91l-10.97,1l11.59,0.54
					c0.74,0.03,1.41-0.41,1.66-1.1L115.9,5.53z"/>
			</g>
			<path fill="#FBBE15" d="M103.59,38.33l-0.25,1.45c-0.09,0.52,0.46,0.92,0.93,0.67l11.34-5.96c0.19-0.1,0.41-0.1,0.6,0l11.34,5.96
				c0.47,0.25,1.02-0.15,0.93-0.67l-2.17-12.62c-0.04-0.21,0.03-0.42,0.18-0.57l9.17-8.94c0.38-0.37,0.17-1.02-0.35-1.09l-4.25-0.62
				C124.19,28.26,113.68,34.75,103.59,38.33z"/>
		</g>
	</g>
	<g>
		<g>
			<path fill="#FFFFFF" d="M60.99,69.79c-1.03-0.5-1.82-1.19-2.37-2.09c-0.55-0.9-0.83-1.94-0.83-3.11c0-1.54,0.36-2.93,1.07-4.17
				c0.71-1.23,1.71-2.2,3-2.89c1.29-0.69,2.75-1.04,4.4-1.04c1.25,0,2.35,0.22,3.32,0.67c0.96,0.44,1.69,1.07,2.16,1.88l-2.76,2.2
				c-0.66-1.05-1.65-1.58-2.97-1.58c-0.86,0-1.62,0.2-2.28,0.61c-0.66,0.41-1.17,0.96-1.53,1.68s-0.55,1.51-0.55,2.4
				c0,0.91,0.3,1.65,0.89,2.2c0.59,0.55,1.4,0.83,2.41,0.83c1.29,0,2.39-0.52,3.3-1.56l2.26,2.22c-0.73,0.89-1.59,1.53-2.57,1.92
				c-0.98,0.39-2.1,0.59-3.36,0.59C63.21,70.53,62.02,70.29,60.99,69.79z"/>
			<path fill="#FFFFFF" d="M74.44,69.85c-0.82-0.39-1.46-0.95-1.91-1.67s-0.68-1.56-0.68-2.51c0-1.14,0.28-2.17,0.83-3.09
				c0.55-0.91,1.32-1.63,2.3-2.16s2.08-0.79,3.3-0.79c1.11,0,2.07,0.2,2.89,0.59c0.82,0.39,1.46,0.95,1.91,1.66s0.68,1.55,0.68,2.5
				c0,1.15-0.28,2.18-0.83,3.1c-0.55,0.92-1.31,1.64-2.29,2.17s-2.07,0.79-3.31,0.79C76.22,70.44,75.26,70.24,74.44,69.85z
				 M79.34,66.67c0.46-0.54,0.69-1.24,0.69-2.1c0-0.62-0.17-1.11-0.52-1.47c-0.35-0.36-0.83-0.54-1.45-0.54
				c-0.73,0-1.33,0.27-1.79,0.81c-0.46,0.54-0.69,1.25-0.69,2.12c0,0.62,0.17,1.1,0.52,1.46c0.35,0.35,0.83,0.53,1.45,0.53
				C78.27,67.48,78.87,67.21,79.34,66.67z"/>
			<path fill="#FFFFFF" d="M103.05,60.56c0.67,0.62,1,1.49,1,2.62c0,0.42-0.05,0.86-0.14,1.29l-1.14,5.79h-3.67l1.08-5.4
				c0.05-0.24,0.08-0.49,0.08-0.73c0-0.46-0.11-0.81-0.34-1.04c-0.23-0.23-0.55-0.35-0.97-0.35c-1.17,0-1.91,0.75-2.22,2.26
				l-1.06,5.27h-3.67l1.1-5.4c0.05-0.22,0.08-0.46,0.08-0.71c0-0.46-0.11-0.81-0.34-1.05c-0.23-0.24-0.55-0.36-0.97-0.36
				c-1.18,0-1.93,0.77-2.24,2.3l-1.04,5.23h-3.67l2.08-10.46h3.47l-0.21,1.06c0.86-0.82,1.9-1.23,3.13-1.23
				c0.69,0,1.32,0.14,1.87,0.43c0.55,0.29,0.98,0.71,1.27,1.26c0.49-0.55,1.06-0.97,1.71-1.26c0.65-0.29,1.36-0.43,2.13-0.43
				C101.49,59.63,102.38,59.94,103.05,60.56z"/>
			<path fill="#FFFFFF" d="M116.21,60.2c0.68,0.38,1.22,0.93,1.63,1.65c0.41,0.72,0.62,1.56,0.62,2.53c0,1.15-0.25,2.18-0.76,3.1
				s-1.2,1.64-2.06,2.17c-0.87,0.53-1.82,0.79-2.85,0.79c-1.52,0-2.58-0.48-3.2-1.43l-1,5h-3.67l2.84-14.2h3.47l-0.21,0.98
				c0.84-0.77,1.85-1.16,3.03-1.16C114.82,59.63,115.54,59.82,116.21,60.2z M114.06,66.67c0.46-0.54,0.69-1.24,0.69-2.1
				c0-0.62-0.18-1.11-0.53-1.47c-0.35-0.36-0.84-0.54-1.46-0.54c-0.73,0-1.33,0.27-1.79,0.81c-0.46,0.54-0.69,1.25-0.69,2.12
				c0,0.62,0.18,1.1,0.53,1.46c0.35,0.35,0.84,0.53,1.46,0.53C113,67.48,113.6,67.21,114.06,66.67z"/>
			<path fill="#FFFFFF" d="M122.51,55.95h3.67l-2.86,14.32h-3.67L122.51,55.95z"/>
			<path fill="#FFFFFF" d="M137.89,65.94h-7.68c0.13,1.13,0.92,1.7,2.37,1.7c0.46,0,0.91-0.07,1.35-0.21
				c0.44-0.14,0.83-0.35,1.18-0.64l1.52,2.3c-1.22,0.9-2.71,1.35-4.46,1.35c-1.11,0-2.08-0.2-2.92-0.59
				c-0.84-0.39-1.49-0.95-1.95-1.66c-0.46-0.71-0.68-1.55-0.68-2.52c0-1.14,0.27-2.18,0.8-3.1c0.53-0.92,1.28-1.64,2.24-2.16
				c0.96-0.52,2.05-0.78,3.29-0.78c1.04,0,1.95,0.19,2.73,0.57c0.78,0.38,1.38,0.92,1.79,1.61c0.42,0.69,0.63,1.5,0.63,2.41
				C138.1,64.73,138.03,65.3,137.89,65.94z M131.29,62.71c-0.4,0.32-0.69,0.75-0.87,1.3h4.3c0.01-0.55-0.16-0.99-0.52-1.3
				c-0.36-0.31-0.84-0.47-1.43-0.47S131.69,62.4,131.29,62.71z"/>
			<path fill="#FFFFFF" d="M144.02,66.37c-0.03,0.18-0.04,0.3-0.04,0.35c0,0.59,0.32,0.89,0.96,0.89c0.35,0,0.71-0.1,1.1-0.31
				l0.46,2.53c-0.72,0.41-1.63,0.62-2.72,0.62c-1.08,0-1.94-0.27-2.58-0.81s-0.96-1.29-0.96-2.26c0-0.37,0.03-0.7,0.1-0.98
				l0.69-3.45h-1.54l0.56-2.74h1.52l0.54-2.72h3.67l-0.54,2.72h2.37l-0.54,2.74h-2.37L144.02,66.37z"/>
			<path fill="#FFFFFF" d="M159.67,65.94h-7.68c0.13,1.13,0.92,1.7,2.37,1.7c0.46,0,0.91-0.07,1.35-0.21
				c0.44-0.14,0.83-0.35,1.18-0.64l1.52,2.3c-1.22,0.9-2.71,1.35-4.46,1.35c-1.11,0-2.08-0.2-2.92-0.59
				c-0.84-0.39-1.49-0.95-1.95-1.66c-0.46-0.71-0.68-1.55-0.68-2.52c0-1.14,0.27-2.18,0.8-3.1c0.53-0.92,1.28-1.64,2.24-2.16
				c0.96-0.52,2.05-0.78,3.29-0.78c1.04,0,1.95,0.19,2.73,0.57c0.78,0.38,1.38,0.92,1.79,1.61c0.42,0.69,0.63,1.5,0.63,2.41
				C159.88,64.73,159.81,65.3,159.67,65.94z M153.07,62.71c-0.4,0.32-0.69,0.75-0.87,1.3h4.3c0.01-0.55-0.16-0.99-0.52-1.3
				c-0.36-0.31-0.84-0.47-1.43-0.47S153.47,62.4,153.07,62.71z"/>
			<path fill="#FFFFFF" d="M174.91,55.95l-2.86,14.32h-3.47l0.21-1.02c-0.84,0.8-1.85,1.2-3.03,1.2c-0.77,0-1.5-0.19-2.17-0.57
				c-0.67-0.38-1.22-0.93-1.63-1.65c-0.41-0.72-0.62-1.57-0.62-2.55c0-1.13,0.25-2.16,0.76-3.08c0.51-0.92,1.2-1.64,2.07-2.17
				s1.83-0.79,2.86-0.79c1.49,0,2.55,0.46,3.18,1.39l1.02-5.07H174.91z M168.83,66.67c0.46-0.54,0.69-1.24,0.69-2.1
				c0-0.62-0.17-1.11-0.52-1.47c-0.35-0.36-0.83-0.54-1.45-0.54c-0.73,0-1.33,0.27-1.79,0.81c-0.46,0.54-0.69,1.25-0.69,2.12
				c0,0.62,0.17,1.1,0.52,1.46c0.35,0.35,0.83,0.53,1.45,0.53C167.77,67.48,168.37,67.21,168.83,66.67z"/>
		</g>
	</g>
</g>
</svg>
