<?xml version="1.0" encoding="utf-8"?>
<!-- Generator: Adobe Illustrator 24.1.1, SVG Export Plug-In . SVG Version: 6.00 Build 0)  -->
<svg version="1.1" id="Layer_1" xmlns="http://www.w3.org/2000/svg" xmlns:xlink="http://www.w3.org/1999/xlink" x="0px" y="0px"
	 viewBox="0 0 102.32 58" enable-background="new 0 0 102.32 58" xml:space="preserve">
<g>
	<path fill="#1C9270" d="M75.78,50.8c0.34,0.14,1.23-0.27,2.27-0.74c0.64-0.29,1.31-0.6,1.81-0.74c0.53-0.16,1.09-0.18,1.63-0.2
		c0.19-0.01,0.33,0.01,0.52,0.04c0,0,0,0,0,0c0.02,0,0.04,0.01,0.06,0.01c0.01,0,0.01,0,0.02,0c0.57,0.16,1.13,0.35,1.67,0.55
		c0.29,0.13,0.55,0.24,0.78,0.3c0.01,0,0.01,0,0.02,0.01c0.55,0.23,1.08,0.48,1.59,0.74c-1.83-0.65-4.34-0.81-6.18-0.31
		c-0.43,0.12-0.67,0.33-0.66,0.59c0,0.17,0.13,0.34,0.31,0.42c0.16,0.07,0.34,0.08,0.51,0.08c0.77-0.01,1.53-0.2,2.26-0.38
		c0.86-0.22,1.75-0.44,2.63-0.36c0.64,0.05,1.27,0.26,1.87,0.46c0.23,0.08,0.39,0.16,0.62,0.3c0.01,0,0.02,0.01,0.02,0.01
		c0.1,0.06,0.19,0.12,0.29,0.19c0.24,0.16,0.47,0.33,0.7,0.5c-1.08-0.22-2.87-0.23-4.66-0.02c-0.98,0.11-3.35,0.47-4.03,1.26
		c-0.19,0.22-0.23,0.45-0.12,0.68c0.22,0.51,1.67-0.07,3.35-0.73c0.91-0.36,1.85-0.73,2.55-0.9c0.76-0.19,1.55-0.2,2.32-0.21
		c0.29,0,0.5,0.02,0.8,0.08c0.2,0.15,0.39,0.31,0.58,0.47c0.05,0.04,0.1,0.09,0.15,0.13c0,0,0.01,0.01,0.01,0.01
		c1.51,1.33,2.68,2.89,3.43,4.59c0.01,0.03,0.05,0.04,0.07,0.03c0.01,0,0.01-0.01,0.02-0.01c0.02-0.02,0.02-0.04,0.01-0.06
		c-0.75-1.7-1.92-3.26-3.42-4.59c0,0,0,0,0,0c-0.02-0.02-0.04-0.03-0.05-0.05l0,0c-0.17-0.15-0.28-0.27-0.42-0.44
		c-0.39-0.49-0.78-1-1.05-1.56c-0.25-0.52-0.5-1.26-0.75-1.99c-0.45-1.34-0.84-2.49-1.27-2.43c-0.18,0.03-0.3,0.13-0.36,0.31
		c-0.21,0.71,0.78,2.39,1.22,3.08c0.54,0.84,1.16,1.67,1.72,2.3c-0.24-0.18-0.48-0.35-0.73-0.52c-0.22-0.14-0.44-0.28-0.66-0.42
		c0,0,0,0-0.01-0.01c0,0-0.01-0.01-0.01-0.01c-0.13-0.08-0.25-0.15-0.38-0.23c-0.06-0.04-0.12-0.08-0.18-0.13
		c-0.48-0.4-0.98-0.82-1.36-1.34c-0.51-0.71-0.76-1.59-1-2.44c-0.21-0.73-0.42-1.48-0.8-2.13c-0.08-0.15-0.18-0.3-0.33-0.39
		c-0.17-0.11-0.38-0.13-0.53-0.04c-0.23,0.13-0.3,0.45-0.19,0.88c0.48,1.81,1.85,3.83,3.33,5.05c-0.36-0.17-0.72-0.34-1.1-0.49
		c-0.01,0-0.01-0.01-0.02-0.01c-0.01-0.01-0.03-0.01-0.04-0.02c-0.11-0.05-0.22-0.09-0.33-0.13c-0.08-0.04-0.16-0.08-0.25-0.13
		c-0.54-0.33-1.09-0.68-1.53-1.14c-0.41-0.43-0.89-1.11-1.36-1.77c-0.71-1.01-1.38-1.97-1.81-2.03c-0.08-0.01-0.15,0-0.21,0.05
		c-0.2,0.15-0.28,0.35-0.25,0.62c0.16,1.09,2.39,2.94,4.2,3.97c-0.79-0.26-1.63-0.49-2.49-0.69c-0.15-0.03-0.31-0.07-0.47-0.1
		c-0.19-0.07-0.32-0.12-0.48-0.22c-0.43-0.27-0.87-0.54-1.22-0.91c-0.33-0.34-0.71-0.89-1.08-1.41c-0.59-0.84-1.11-1.57-1.45-1.62
		c-0.06-0.01-0.12,0-0.17,0.04c-0.16,0.12-0.23,0.29-0.2,0.5c0.15,1.01,2.53,2.85,4.02,3.51c-0.18-0.02-0.36-0.04-0.54-0.06h0
		c-1.35-0.15-3.83,0.09-4.34,0.74c-0.1,0.13-0.13,0.27-0.07,0.42c0.02,0.05,0.05,0.08,0.1,0.1c0.22,0.09,0.75-0.14,1.42-0.43
		c0.49-0.21,1.04-0.45,1.47-0.55c0.63-0.14,0.98-0.16,1.36-0.17l0.05,0c0.38,0.02,0.74,0.08,1.1,0.15c0,0,0.01,0,0.01,0
		c0,0,0.01,0,0.01,0c0.16,0.03,0.31,0.06,0.46,0.1c0.22,0.05,0.45,0.1,0.67,0.16c-0.71-0.05-1.62,0-2.52,0.13
		c-0.68,0.1-2.34,0.4-2.89,1.01c-0.17,0.19-0.22,0.39-0.14,0.59C75.67,50.73,75.72,50.78,75.78,50.8z"/>
	<path fill="#1C9270" d="M76.56,4.76c-0.61-0.26-1.23-0.17-1.84,0.27c-1.99,1.43-3.25,6.02-3.7,7.93c-0.59,2.52-0.91,5.07-0.92,7.08
		c-0.12-0.63-0.24-1.27-0.35-1.92c-0.07-0.43-0.14-0.88-0.2-1.33c0-0.01,0-0.02,0-0.02c0-0.01,0-0.01-0.01-0.02
		c-0.14-1.02-0.24-2.07-0.23-3.14l0.01-0.13c0.12-1.06,0.23-2.07,0.8-3.81c0.39-1.18,1.24-2.69,1.99-4.01
		c1.03-1.82,1.85-3.27,1.61-3.92c-0.05-0.14-0.15-0.25-0.29-0.31C73,1.24,72.56,1.28,72.14,1.55c-2.08,1.3-3.35,8.22-3.16,12.08l0,0
		c-0.01,0.52,0.02,1.03,0.06,1.53c-1.73-4.36-6.86-11.5-9.93-12.14c-0.65-0.14-1.19,0.01-1.59,0.45c-0.12,0.13-0.18,0.29-0.16,0.48
		c0.08,0.99,2.2,2.6,4.66,4.46c1.53,1.16,3.11,2.36,4.09,3.36c1.05,1.07,1.8,2.38,2.52,3.65c0.27,0.48,0.41,0.85,0.57,1.4
		c0.06,0.46,0.13,0.92,0.2,1.36c0.41,2.49,0.94,4.89,1.58,7.19c-2.77-5.34-7.98-12.06-11.29-12.76c-0.8-0.17-1.46,0.01-1.95,0.55
		c-0.15,0.16-0.21,0.35-0.19,0.57c0.1,1.22,2.89,3.34,5.84,5.58c1.92,1.46,3.9,2.96,5.14,4.23c1.32,1.35,2.27,2.99,3.17,4.58
		c0.15,0.26,0.26,0.49,0.36,0.73c0.11,0.32,0.22,0.65,0.34,0.97c0.01,0.04,0.02,0.08,0.04,0.12c0.01,0.02,0.02,0.04,0.03,0.05
		c0.4,1.09,0.83,2.16,1.29,3.2c-3.43-4.44-9.32-8.77-14.78-10.53c-1.28-0.41-2.28-0.29-2.74,0.34c-0.3,0.42-0.3,1.01,0.01,1.51
		c0.27,0.43,0.71,0.74,1.14,1.01c1.94,1.21,4.19,1.98,6.37,2.73c2.55,0.87,5.18,1.77,7.27,3.38c1.52,1.17,2.69,2.67,3.83,4.13
		c0.14,0.18,0.26,0.35,0.37,0.53c0.2,0.38,0.4,0.76,0.61,1.14c0.01,0.01,0.01,0.03,0.02,0.04c0,0.01,0.01,0.01,0.02,0.02
		c0.37,0.67,0.75,1.33,1.15,1.97c0.46,0.75,0.95,1.47,1.45,2.18c-1.81-1.73-4.21-3.66-6.68-5.37c-2.02-1.39-6.95-4.59-9.17-4.14
		c-0.54,0.11-0.89,0.43-1.01,0.94c-0.29,1.2,3.17,2.55,7.17,4.12c2.16,0.85,4.39,1.72,5.93,2.56c1.65,0.89,3.12,2.13,4.55,3.33
		c0.5,0.42,0.84,0.78,1.26,1.28l0,0c0.05,0.05,0.09,0.11,0.14,0.16c0,0,0,0,0,0c3.75,4.53,8.29,8.17,13.35,10.68
		c0.06,0.03,0.14,0.02,0.19-0.02c0.02-0.01,0.03-0.03,0.04-0.05c0.05-0.08,0.02-0.17-0.06-0.21c-5.06-2.52-9.6-6.17-13.35-10.72
		c-0.01-0.01-0.02-0.02-0.03-0.03c-0.11-0.14-0.23-0.29-0.36-0.45c-0.45-0.56-0.89-1.14-1.32-1.73c-0.11-0.86-0.15-1.46-0.08-2.27
		c0.19-2.17,0.39-4.41,1.12-6.5c0.68-1.96,2.02-4.52,3.3-7c2.39-4.59,4.45-8.56,2.94-9.3c-0.71-0.34-1.42-0.28-2.12,0.2
		c-2.59,1.75-4.15,8.34-4.71,11.09c-1.01,5-1.35,10.06-0.9,13.15c-0.47-0.68-0.93-1.37-1.37-2.07c-0.18-0.28-0.35-0.57-0.52-0.86
		c0-0.02,0-0.05-0.02-0.07c-0.37-0.67-0.59-1.13-0.78-1.81c-0.49-1.74-1-3.55-1.03-5.38c-0.04-2.51,0.83-4.97,1.67-7.35
		c0.72-2.03,1.46-4.14,1.65-6.29c0.04-0.48,0.06-0.99-0.13-1.46c-0.22-0.54-0.7-0.92-1.22-0.97c-0.8-0.08-1.51,0.56-1.95,1.74
		c-1.91,5.1-1.94,12.21-0.34,17.52c-0.71-1.5-1.35-3.05-1.94-4.66c0-0.02-0.01-0.03-0.01-0.05c-0.15-0.66-0.42-1.42-0.77-2.26
		c-0.5-1.56-0.94-3.17-1.33-4.83c0-0.02,0.01-0.03,0.01-0.05c-0.01-0.05-0.01-0.11-0.02-0.16c0,0,0,0,0,0
		c-0.07-0.54-0.09-0.94-0.03-1.48c0.17-1.52,0.35-3.09,0.94-4.56c0.55-1.38,1.62-3.19,2.65-4.94c1.65-2.81,3.08-5.24,2.74-6.23
		C76.87,4.97,76.74,4.83,76.56,4.76z"/>
	<g>
		<path fill="#E84C40" d="M89.34,16.58c-0.36,2.58-1.96,2.14-2.81,5.6c-0.85,3.47,1.14,4.37,0.69,8.04
			c-0.45,3.67-2.55,3.28-2.55,7.84c0,7.53,10.44,6.28,10.44,6.28s7.6-0.07,7.2-6.35c-0.4-6.28-2.52-4.25-2.98-7.91
			c-0.45-3.67,2.44-4.52,1.58-7.99s-3.01-3.19-3.43-5.77c-0.21-1.29-0.93-4.18-4.05-4.18C90.32,12.14,89.57,14.95,89.34,16.58z"/>
		
			<line fill="none" stroke="#541A4B" stroke-width="0.5" stroke-linecap="round" stroke-linejoin="round" stroke-miterlimit="10" x1="93.43" y1="18.87" x2="93.43" y2="56.15"/>
		
			<line fill="none" stroke="#541A4B" stroke-width="0.5" stroke-linecap="round" stroke-linejoin="round" stroke-miterlimit="10" x1="93.43" y1="40.02" x2="89.27" y2="35.8"/>
		
			<line fill="none" stroke="#541A4B" stroke-width="0.5" stroke-linecap="round" stroke-linejoin="round" stroke-miterlimit="10" x1="93.43" y1="35.47" x2="97.32" y2="31.35"/>
		
			<line fill="none" stroke="#541A4B" stroke-width="0.5" stroke-linecap="round" stroke-linejoin="round" stroke-miterlimit="10" x1="93.43" y1="26.46" x2="89.53" y2="22.37"/>
		
			<line fill="none" stroke="#541A4B" stroke-width="0.5" stroke-linecap="round" stroke-linejoin="round" stroke-miterlimit="10" x1="93.51" y1="22.37" x2="96.28" y2="19.6"/>
		<path fill="#E84C40" d="M90.04,48.8c0,0-0.61,0.67-1.84-0.72c0,0,1.6-0.32,1.88,0.62L90.04,48.8z"/>
		<path fill="#E84C40" d="M90.11,48.7c0,0,0.91,0.01,0.73-1.84c0,0-1.32,0.96-0.82,1.8L90.11,48.7z"/>
		<path fill="#E84C40" d="M90.68,50.22c0,0-0.7,0.77-2.11-0.82c0,0,1.84-0.36,2.16,0.72L90.68,50.22z"/>
		<path fill="#E84C40" d="M90.75,50.11c0,0,1.05,0.01,0.83-2.11c0,0-1.52,1.1-0.94,2.07L90.75,50.11z"/>
		<path fill="#E84C40" d="M91.24,51.76c0,0-0.79,0.87-2.36-0.92c0,0,2.05-0.41,2.41,0.8L91.24,51.76z"/>
		<path fill="#E84C40" d="M91.33,51.63c0,0,1.17,0.01,0.93-2.36c0,0-1.7,1.23-1.05,2.31L91.33,51.63z"/>
		<path fill="#E84C40" d="M91.74,53.53c0,0-0.85,0.8-2.28-1.11c0,0,2.08-0.24,2.34,0.99L91.74,53.53z"/>
		<path fill="#E84C40" d="M91.83,53.42c0,0,1.16,0.11,1.12-2.28c0,0-1.79,1.09-1.23,2.22L91.83,53.42z"/>
		<path fill="#EC6E3A" d="M97.12,49.13c0,0,0.64,0.65,1.81-0.79c0,0-1.61-0.25-1.85,0.7L97.12,49.13z"/>
		<path fill="#EC6E3A" d="M97.05,49.04c0,0-0.91,0.05-0.8-1.81c0,0,1.36,0.9,0.89,1.76L97.05,49.04z"/>
		<path fill="#EC6E3A" d="M96.54,50.58c0,0,0.73,0.74,2.08-0.91c0,0-1.85-0.29-2.12,0.81L96.54,50.58z"/>
		<path fill="#EC6E3A" d="M96.46,50.48c0,0-1.04,0.06-0.92-2.07c0,0,1.56,1.04,1.03,2.03L96.46,50.48z"/>
		<path fill="#EC6E3A" d="M96.05,52.14c0,0,0.82,0.83,2.32-1.02c0,0-2.07-0.32-2.38,0.9L96.05,52.14z"/>
		<path fill="#EC6E3A" d="M95.95,52.02c0,0-1.17,0.06-1.03-2.32c0,0,1.74,1.16,1.15,2.27L95.95,52.02z"/>
		<path fill="#EC6E3A" d="M95.62,53.94c0,0,0.88,0.76,2.24-1.2c0,0-2.09-0.15-2.3,1.09L95.62,53.94z"/>
		<path fill="#EC6E3A" d="M95.52,53.82c0,0-1.16,0.15-1.21-2.23c0,0,1.83,1.02,1.32,2.17L95.52,53.82z"/>
		
			<path fill="none" stroke="#541A4B" stroke-width="0.25" stroke-linecap="round" stroke-linejoin="round" stroke-miterlimit="10" d="
			M95.03,56.5c0,0,0.33-3.51,2.52-8.57"/>
		<path fill="#EC6E3A" d="M97.44,47.98c0,0-0.59-0.69,0.94-1.74c0,0,0.12,1.63-0.85,1.79L97.44,47.98z"/>
		
			<path fill="none" stroke="#541A4B" stroke-width="0.25" stroke-linecap="round" stroke-linejoin="round" stroke-miterlimit="10" d="
			M92.44,56.07c0,0-0.47-3.49-2.88-8.45"/>
		<path fill="#E84C40" d="M98.98,57.76C99,57.65,99,57.55,99,57.44c0-0.89-0.64-1.62-1.45-1.69c-0.16-0.52-0.61-0.89-1.15-0.89
			c-0.13,0-0.25,0.02-0.37,0.06c-0.22-0.65-0.8-1.12-1.48-1.12c-0.6,0-1.13,0.37-1.39,0.91c-0.16-0.09-0.34-0.13-0.53-0.13
			c-0.43,0-0.81,0.24-1.03,0.61c-0.23-0.14-0.5-0.23-0.78-0.23c-0.79,0-1.44,0.63-1.54,1.46c-0.64,0.06-1.15,0.63-1.16,1.33H98.98z"
			/>
	</g>
	<g>
		<linearGradient id="SVGID_1_" gradientUnits="userSpaceOnUse" x1="47.0192" y1="33.9358" x2="47.0192" y2="53.0425">
			<stop  offset="0" style="stop-color:#F3736B"/>
			<stop  offset="1" style="stop-color:#F8ADA7"/>
		</linearGradient>
		<path fill="url(#SVGID_1_)" d="M51.03,33.01c-1.87,0.7-3.98,1.7-5.73,3.03c0,0-1.69,1.23-1.05,4.32l0.12,9.81l-3.21,2.28
			l-1.99,0.58c0,0-0.35,0.23-0.23,0.41c0.1,0.15,6.04,0.04,7.65,0.01c0.35-0.01,0.68-0.17,0.88-0.46c0.11-0.16,0.17-0.35,0.11-0.55
			c-0.18-0.53-0.47-2.69-0.47-2.69l0.18-3.72c0.03-0.63,0.19-1.25,0.47-1.82c0.38-0.77,0.77-1.94-0.06-4.14c0,0,3.3-0.37,7.45-1.31
			C52.98,36.82,51.71,34.47,51.03,33.01z"/>
		<linearGradient id="SVGID_2_" gradientUnits="userSpaceOnUse" x1="70.4736" y1="37.3125" x2="86.1535" y2="52.9924">
			<stop  offset="0" style="stop-color:#F3736B"/>
			<stop  offset="1" style="stop-color:#F8ADA7"/>
		</linearGradient>
		<path fill="url(#SVGID_2_)" d="M87.59,51.7c-0.79-1.63-2.33-4.79-5.44-7.02c-0.65-0.47-1.26-1-1.81-1.58
			c-1.07-1.14-3.19-3.12-6.36-4.9c-0.03-0.04-0.06-0.08-0.09-0.13c-1.39,1.81-3,2.59-4.28,2.92c1.8,1.69,3.97,2.65,5.52,3.16
			c1.26,0.41,2.41,1.11,3.37,2.02c0.99,0.93,2.59,2.14,4.96,3.14c0.45,0.19,0.82,0.52,1.05,0.95c0.26,0.48,0.33,1.05,0.18,1.58
			c-0.14,0.5-0.31,1.05-0.42,1.04c-0.59-0.02-0.48,0.57-0.48,0.57h2.11h0.61C87.39,53.45,87.98,52.51,87.59,51.7z"/>
		<g>
			<defs>
				<path id="XMLID_4_" d="M73.88,38.07c-3.12-4.24-5.99-6.42-5.99-6.42L55.81,31.6c0,0-2.15,0.42-4.78,1.41
					c0.4,2.21,1.22,4.08,4.28,6.01c1.28-0.41,5.71-2.23,12.32,1.43l0.53,0.93C70.22,41.32,72.63,39.96,73.88,38.07z"/>
			</defs>
			<linearGradient id="XMLID_2_" gradientUnits="userSpaceOnUse" x1="62.4533" y1="40.0091" x2="62.4533" y2="31.338">
				<stop  offset="0" style="stop-color:#4A5D6B"/>
				<stop  offset="1" style="stop-color:#060707"/>
			</linearGradient>
			<use xlink:href="#XMLID_4_"  overflow="visible" fill="url(#XMLID_2_)"/>
			<clipPath id="XMLID_3_">
				<use xlink:href="#XMLID_4_"  overflow="visible"/>
			</clipPath>
		</g>
		<g>
			<defs>
				<path id="XMLID_7_" d="M71.47,10.8c-1.59-0.32-4.29-0.56-6.6,0.67h-6.83c0,0-3.22-1.71-7.37-0.55c0.39,0.88,0.77,2.34,0.8,4.68
					c0.56,0.03,1.09,0.07,1.51,0.1c0.6,0.04,1.12,0.44,1.33,1c0.65,1.77,1.96,6.95,2.08,12.68l-0.58,2.22l7.43,0.24
					c0.65,0.02,1.29,0.12,1.9,0.31c0.83,0.26,2.17,0.48,2.75-0.49l0.04-4.27c0.01-0.93,0.09-1.86,0.24-2.78l1.15-7.13
					c0.12-0.76,0.79-1.28,1.56-1.3c0.1,0,0.2-0.01,0.29-0.02c0.62-1.9,0.98-3.88,1.18-5.24C72.06,10.9,71.77,10.86,71.47,10.8z"/>
			</defs>
			<linearGradient id="XMLID_5_" gradientUnits="userSpaceOnUse" x1="61.5099" y1="31.0418" x2="61.5099" y2="12.6871">
				<stop  offset="0" style="stop-color:#00654D"/>
				<stop  offset="1" style="stop-color:#009175"/>
			</linearGradient>
			<use xlink:href="#XMLID_7_"  overflow="visible" fill="url(#XMLID_5_)"/>
			<clipPath id="XMLID_6_">
				<use xlink:href="#XMLID_7_"  overflow="visible"/>
			</clipPath>
			<g opacity="0.1" clip-path="url(#XMLID_6_)">
				<path fill="#FFFFFF" d="M57.5,15.93l1.76-0.4h1.53v4.87h0.67v1.3h-3.72v-1.3h0.76v-3.57h-1V15.93z"/>
				<path fill="#FFFFFF" d="M63.63,17.93h0.56c0.2,0,0.35-0.05,0.43-0.14c0.09-0.09,0.13-0.22,0.13-0.39c0-0.2-0.04-0.35-0.13-0.45
					c-0.09-0.09-0.22-0.14-0.4-0.14c-0.18,0-0.31,0.05-0.4,0.14c-0.09,0.09-0.13,0.24-0.13,0.45v0.13h-1.59v-1.62
					c0.1-0.05,0.21-0.11,0.35-0.17c0.13-0.06,0.3-0.12,0.48-0.17c0.19-0.05,0.4-0.1,0.63-0.13c0.24-0.03,0.51-0.05,0.81-0.05
					c0.75,0,1.31,0.15,1.69,0.46c0.38,0.31,0.58,0.74,0.58,1.3c0,0.18-0.02,0.34-0.07,0.48c-0.05,0.14-0.11,0.26-0.18,0.37
					c-0.07,0.11-0.15,0.2-0.24,0.28c-0.09,0.08-0.17,0.15-0.24,0.21v0.08c0.08,0.05,0.18,0.12,0.27,0.19
					c0.1,0.07,0.19,0.16,0.27,0.27c0.08,0.11,0.16,0.23,0.21,0.38c0.06,0.15,0.09,0.32,0.09,0.52c0,0.28-0.05,0.54-0.15,0.77
					c-0.1,0.23-0.25,0.43-0.46,0.59c-0.2,0.16-0.46,0.29-0.77,0.38c-0.31,0.09-0.67,0.13-1.09,0.13c-0.29,0-0.54-0.02-0.77-0.05
					c-0.22-0.03-0.43-0.08-0.6-0.13c-0.18-0.05-0.33-0.11-0.47-0.17c-0.13-0.07-0.25-0.13-0.35-0.19v-1.67h1.59v0.22
					c0,0.21,0.04,0.36,0.13,0.45c0.09,0.09,0.22,0.14,0.4,0.14c0.18,0,0.31-0.05,0.4-0.14c0.09-0.1,0.13-0.27,0.13-0.52
					c0-0.2-0.04-0.34-0.13-0.44c-0.09-0.1-0.23-0.15-0.42-0.15h-0.57V17.93z"/>
			</g>
		</g>
		<linearGradient id="SVGID_3_" gradientUnits="userSpaceOnUse" x1="55.3675" y1="11.9091" x2="32.9701" y2="11.9091">
			<stop  offset="0" style="stop-color:#F3736B"/>
			<stop  offset="1" style="stop-color:#F8ADA7"/>
		</linearGradient>
		<path fill="url(#SVGID_3_)" d="M50.4,10.99c-1.01,0.31-2.08,0.32-3.1,0.04l-0.23-0.06c-0.68-0.19-1.29-0.46-1.82-0.84
			c-1.02-0.73-3.27-1.91-6.44-1.24l-5.66-0.47c0,0-1.64-0.35-2.98-0.12c-1.34,0.23-3.27,0.18-3.27,0.18s0.09,0.23,0.41,0.29
			c0.32,0.06,1.9,0.18,1.9,0.18s-0.35,0.58,0.41,0.64s1.05-0.03,1.05-0.03s1.14,0.93,2.48,0.38l5.1,3.17c0.9,0.56,1.95,0.8,3,0.68
			l2.98-0.32c0.68-0.07,1.37,0.04,1.99,0.34c1.33,0.63,3.72,1.71,4.77,1.77c0.16,0.01,0.32,0.02,0.48,0.03
			c-0.03-2.34-0.41-3.8-0.8-4.68C50.58,10.94,50.49,10.97,50.4,10.99z"/>
		<linearGradient id="SVGID_4_" gradientUnits="userSpaceOnUse" x1="71.0472" y1="12.272" x2="89.1814" y2="12.272">
			<stop  offset="0" style="stop-color:#F3736B"/>
			<stop  offset="1" style="stop-color:#F8ADA7"/>
		</linearGradient>
		<path fill="url(#SVGID_4_)" d="M90,8.74l-1.95,0.15c-0.43,0.03-0.87,0.01-1.29-0.09c-1.53-0.33-5.7-1.01-8.33,0.67
			c-0.81,0.52-1.71,0.89-2.65,1.09l-1.16,0.24c-0.75,0.15-1.51,0.2-2.26,0.13c-0.2,1.36-0.56,3.33-1.18,5.24
			c0.44-0.04,0.87-0.16,1.27-0.36l4.38-1.73c0.47-0.18,0.97-0.25,1.47-0.2l1.67,0.17c0.96,0.1,1.93-0.09,2.79-0.55l6.05-3.27
			c0,0,0.99,0.7,1.69,0.29c0.7-0.41,1.52-0.53,1.52-0.53s0.35,0.03,0.41-0.38l1.61-0.12c0,0,0.73-0.18,0.7-0.55L90,8.74z"/>
		<linearGradient id="SVGID_5_" gradientUnits="userSpaceOnUse" x1="61.4554" y1="9.4295" x2="61.4554" y2="11.5831">
			<stop  offset="0" style="stop-color:#F3736B"/>
			<stop  offset="1" style="stop-color:#F8ADA7"/>
		</linearGradient>
		<path fill="url(#SVGID_5_)" d="M62.73,11.47l-0.09-1.93l-1.76-1.88l-0.91,2.39l0.04,1.42h-1.97l2.4,0.86
			c0.66,0.24,1.38,0.24,2.04,0l2.4-0.86H62.73z"/>
		<linearGradient id="SVGID_6_" gradientUnits="userSpaceOnUse" x1="61.7352" y1="9.3513" x2="59.5378" y2="7.154">
			<stop  offset="0" style="stop-color:#F3736B"/>
			<stop  offset="1" style="stop-color:#F8ADA7"/>
		</linearGradient>
		<path fill="url(#SVGID_6_)" d="M60.88,8.71h0.31c0.92,0,1.66-0.74,1.66-1.66l0,0c0-0.92-0.74-1.66-1.66-1.66h-2.41
			c-0.55,0-0.78,1.2-0.78,1.2s-0.47,1.96,0.41,3.54c0.1,0.17,0.28,0.28,0.47,0.28h0.4c0.45,0,0.87-0.23,1.11-0.62
			C60.65,9.4,60.88,8.94,60.88,8.71z"/>
		<linearGradient id="SVGID_7_" gradientUnits="userSpaceOnUse" x1="60.8972" y1="9.2338" x2="60.8972" y2="5.0834">
			<stop  offset="0" style="stop-color:#1A232E"/>
			<stop  offset="1" style="stop-color:#4A5D6B"/>
		</linearGradient>
		<path fill="url(#SVGID_7_)" d="M58.79,5.38l0.7,0c0.3,0,0.49,0.33,0.33,0.59l-0.04,0.07c-0.06,0.1-0.09,0.21-0.09,0.33l0,0
			c0,0.26,0.16,0.5,0.41,0.59l0.04,0.02c0.19,0.07,0.31,0.25,0.31,0.45c-0.01,0.38-0.02,0.96,0.01,0.96c0.04,0,0.39,0,0.39,0V8.14
			c0-0.43,0.21-0.85,0.59-1.06c0.22-0.13,0.48-0.17,0.73,0.05c0.61,0.55-0.24,1.42-0.57,1.47l0,0c0,0.52,0.42,0.94,0.94,0.94h0.11
			c0,0,0.55-0.53,0.61-1.45c0.07-0.92,0-2.1,0-2.1S63.1,4.48,60.6,4.48c-1.26,0-1.83,0.07-2.06,0.53
			C58.45,5.18,58.59,5.38,58.79,5.38z"/>
	</g>
	<g>
		<g>
			<path fill="#EC6E3A" d="M34.69,42.09c0,0,1.18,1.19,3.33-1.46c0,0-2.96-0.46-3.4,1.29L34.69,42.09z"/>
			<path fill="#EC6E3A" d="M34.56,41.92c0,0-1.67,0.09-1.48-3.32c0,0,2.5,1.66,1.64,3.24L34.56,41.92z"/>
			<path fill="#EC6E3A" d="M33.63,44.76c0,0,1.35,1.37,3.82-1.68c0,0-3.4-0.52-3.91,1.48L33.63,44.76z"/>
			<path fill="#EC6E3A" d="M33.48,44.56c0,0-1.92,0.1-1.7-3.81c0,0,2.87,1.9,1.89,3.73L33.48,44.56z"/>
			<path fill="#EC6E3A" d="M32.71,47.62c0,0,1.51,1.53,4.27-1.88c0,0-3.81-0.59-4.37,1.66L32.71,47.62z"/>
			<path fill="#EC6E3A" d="M32.54,47.4c0,0-2.15,0.11-1.9-4.26c0,0,3.21,2.13,2.11,4.17L32.54,47.4z"/>
			<path fill="#EC6E3A" d="M31.94,50.92c0,0,1.63,1.41,4.11-2.21c0,0-3.84-0.28-4.22,2L31.94,50.92z"/>
			<path fill="#EC6E3A" d="M31.75,50.72c0,0-2.13,0.28-2.23-4.1c0,0,3.37,1.87,2.43,3.99L31.75,50.72z"/>
			
				<path fill="none" stroke="#541A4B" stroke-width="0.25" stroke-linecap="round" stroke-linejoin="round" stroke-miterlimit="10" d="
				M30.85,55.64c0,0,0.6-6.45,4.63-15.75"/>
			<path fill="#EC6E3A" d="M35.28,39.97c0,0-1.09-1.27,1.72-3.2c0,0,0.22,2.99-1.56,3.29L35.28,39.97z"/>
		</g>
		<path fill="#E84C40" d="M37.89,57.98c0.03-0.19,0.05-0.38,0.05-0.58c0-1.64-1.18-2.98-2.67-3.1c-0.3-0.95-1.13-1.63-2.11-1.63
			c-0.24,0-0.46,0.04-0.68,0.11c-0.4-1.2-1.47-2.05-2.72-2.05c-1.11,0-2.08,0.68-2.56,1.67c-0.3-0.16-0.63-0.25-0.98-0.25
			c-0.79,0-1.49,0.45-1.89,1.12c-0.42-0.27-0.91-0.42-1.44-0.42c-1.45,0-2.65,1.17-2.84,2.68c-1.18,0.1-2.11,1.16-2.12,2.45H37.89z"
			/>
	</g>
	<g>
		<path fill="#E84C40" d="M13.37,40.61c0,0-1.19,1.31-3.57-1.39c0,0,3.1-0.61,3.64,1.21L13.37,40.61z"/>
		<path fill="#E84C40" d="M13.51,40.42c0,0,1.77,0.02,1.41-3.57c0,0-2.56,1.86-1.59,3.49L13.51,40.42z"/>
		<path fill="#D51B5F" d="M20.64,31.96c0,0-1.62,0.7-2.68-2.74c0,0,3.08,0.72,2.82,2.61L20.64,31.96z"/>
		<path fill="#D51B5F" d="M20.94,31.74c0,0,1.6,0.75,2.75-2.67c0,0-3.1,0.64-2.89,2.53L20.94,31.74z"/>
		<path fill="#D51B5F" d="M20.6,34.86c0,0-1.72,0.75-2.85-2.91c0,0,3.28,0.77,3,2.77L20.6,34.86z"/>
		<path fill="#D51B5F" d="M20.92,34.63c0,0,1.7,0.79,2.93-2.84c0,0-3.3,0.68-3.07,2.69L20.92,34.63z"/>
		<path fill="#D51B5F" d="M20.54,38.16c0,0-1.91,0.83-3.15-3.22c0,0,3.62,0.85,3.32,3.06L20.54,38.16z"/>
		<path fill="#D51B5F" d="M20.9,37.9c0,0,1.88,0.88,3.24-3.14c0,0-3.64,0.75-3.4,2.97L20.9,37.9z"/>
		<path fill="#D51B5F" d="M20.54,41.64c0,0-1.91,0.83-3.16-3.23c0,0,3.63,0.85,3.32,3.07L20.54,41.64z"/>
		<path fill="#D51B5F" d="M20.9,41.37c0,0,1.89,0.88,3.25-3.14c0,0-3.65,0.75-3.4,2.98L20.9,41.37z"/>
		<path fill="#D51B5F" d="M20.24,44.23c0,0-1.37,0.6-2.27-2.32c0,0,2.61,0.61,2.39,2.21L20.24,44.23z"/>
		<path fill="#D51B5F" d="M20.51,44.12c0,0,1.26,0.81,2.61-1.93c0,0-2.67,0.19-2.71,1.8L20.51,44.12z"/>
		<path fill="#D51B5F" d="M20.34,46.35c0,0,1.03,0.66,2.14-1.59c0,0-2.2,0.15-2.22,1.48L20.34,46.35z"/>
		<path fill="#D51B5F" d="M20.29,46.35c0,0-1.04,0.66-2.14-1.59c0,0,2.2,0.15,2.23,1.48L20.29,46.35z"/>
		<path fill="#E84C40" d="M14.61,43.38c0,0-1.36,1.5-4.11-1.6c0,0,3.57-0.7,4.19,1.39L14.61,43.38z"/>
		<path fill="#E84C40" d="M14.76,43.17c0,0,2.03,0.02,1.62-4.1c0,0-2.94,2.14-1.83,4.02L14.76,43.17z"/>
		<path fill="#E84C40" d="M15.71,46.36c0,0-1.52,1.68-4.59-1.79c0,0,3.99-0.79,4.68,1.56L15.71,46.36z"/>
		<path fill="#E84C40" d="M15.87,46.12c0,0,2.27,0.02,1.81-4.58c0,0-3.29,2.39-2.04,4.49L15.87,46.12z"/>
		<path fill="#E84C40" d="M16.67,49.81c0,0-1.65,1.55-4.43-2.15c0,0,4.04-0.47,4.54,1.92L16.67,49.81z"/>
		<path fill="#E84C40" d="M16.86,49.58c0,0,2.26,0.2,2.17-4.42c0,0-3.47,2.12-2.39,4.31L16.86,49.58z"/>
		<path fill="#EC6E3A" d="M27.12,41.26c0,0,1.24,1.26,3.51-1.54c0,0-3.13-0.48-3.59,1.36L27.12,41.26z"/>
		<path fill="#EC6E3A" d="M26.98,41.08c0,0-1.76,0.09-1.56-3.5c0,0,2.64,1.75,1.73,3.42L26.98,41.08z"/>
		<path fill="#EC6E3A" d="M26,44.08c0,0,1.43,1.44,4.03-1.77c0,0-3.59-0.55-4.12,1.57L26,44.08z"/>
		<path fill="#EC6E3A" d="M25.84,43.87c0,0-2.03,0.11-1.79-4.03c0,0,3.03,2.01,1.99,3.94L25.84,43.87z"/>
		<path fill="#EC6E3A" d="M25.03,47.1c0,0,1.59,1.62,4.51-1.98c0,0-4.02-0.62-4.61,1.75L25.03,47.1z"/>
		<path fill="#EC6E3A" d="M24.85,46.87c0,0-2.27,0.12-2-4.5c0,0,3.39,2.25,2.23,4.4L24.85,46.87z"/>
		<path fill="#EC6E3A" d="M24.22,50.59c0,0,1.72,1.48,4.34-2.33c0,0-4.05-0.3-4.46,2.11L24.22,50.59z"/>
		<path fill="#EC6E3A" d="M24.02,50.37c0,0-2.25,0.3-2.35-4.33c0,0,3.55,1.97,2.57,4.21L24.02,50.37z"/>
		
			<path fill="none" stroke="#541A4B" stroke-width="0.25" stroke-linecap="round" stroke-linejoin="round" stroke-miterlimit="10" d="
			M23.07,55.56c0,0,0.64-6.81,4.89-16.63"/>
		<path fill="#EC6E3A" d="M27.75,39.02c0,0-1.15-1.34,1.82-3.38c0,0,0.23,3.16-1.65,3.47L27.75,39.02z"/>
		
			<path fill="none" stroke="#541A4B" stroke-width="0.25" stroke-linecap="round" stroke-linejoin="round" stroke-miterlimit="10" d="
			M19.61,55.04c0,0,1.73-19.85,1-25.53"/>
		<path fill="#D51B5F" d="M20.65,29.65c0,0,1.57-0.81-0.43-3.81c0,0-1.39,2.84,0.23,3.83L20.65,29.65z"/>
		
			<path fill="none" stroke="#541A4B" stroke-width="0.25" stroke-linecap="round" stroke-linejoin="round" stroke-miterlimit="10" d="
			M18.02,54.73c0,0-0.92-6.78-5.59-16.41"/>
		<path fill="#541A4B" d="M30.72,58c0.03-0.2,0.05-0.4,0.05-0.61c0-1.73-1.24-3.15-2.82-3.28c-0.32-1-1.19-1.72-2.23-1.72
			c-0.25,0-0.49,0.04-0.71,0.12c-0.42-1.26-1.55-2.17-2.87-2.17c-1.17,0-2.19,0.71-2.7,1.76c-0.31-0.17-0.67-0.26-1.04-0.26
			c-0.84,0-1.57,0.47-1.99,1.19c-0.45-0.28-0.96-0.44-1.52-0.44c-1.53,0-2.8,1.23-2.99,2.83c-1.24,0.11-2.22,1.22-2.24,2.58H30.72z"
			/>
	</g>
</g>
</svg>
