<?xml version="1.0" encoding="utf-8"?><!-- Generator: Adobe Illustrator 24.1.1, SVG Export Plug-In . SVG Version: 6.00 Build 0)  -->
<svg version="1.1" id="Layer_1" xmlns="http://www.w3.org/2000/svg"
    xmlns:xlink="http://www.w3.org/1999/xlink" x="0px" y="0px" viewBox="0 0 4437.03 3545.48"
    enable-background="new 0 0 4437.03 3545.48" xml:space="preserve">
<g>
	<defs>
		<rect id="SVGID_1_" y="22.74" width="4500" height="3500" />
	</defs>
    <clipPath id="SVGID_2_">
		<use xlink:href="#SVGID_1_" overflow="visible" />
	</clipPath>
    <g opacity="0.3" clip-path="url(#SVGID_2_)">
		<polyline fill="none" stroke="#FFFFFF" stroke-miterlimit="10" points="7212.33,7535.1 5823.96,6560.35 4633.93,6923.05 
			4217.42,7716.45 2511.71,7013.72 1698.53,7353.75 230.83,6560.35 		" />
        <polyline fill="none" stroke="#FFFFFF" stroke-width="7.4444" stroke-miterlimit="10" points="7205.71,7218.83 6533.21,6807.56
			5771.07,6262.6 4581.77,6633.56 4147.39,7411.04 3709.54,7225.42 2845.91,6875.54 2382.43,6717.94 1592.38,7063.72 
			1446.55,6989.17 146.35,6291.85 		" />
        <polyline fill="none" stroke="#FFFFFF" stroke-width="13.8889" stroke-miterlimit="10"
            points="7199.1,6902.57 6500.59,6533.91
			5718.18,5964.84 4529.62,6344.07 4077.36,7105.64 3625.84,6909.15 2729.31,6551.64 2253.14,6422.16 1486.24,6773.69 
			1344.61,6705.69 61.87,6023.36 		" />
        <polyline fill="none" stroke="#FFFFFF" stroke-width="20.3333" stroke-miterlimit="10"
            points="7192.49,6586.31 6467.97,6260.27
			5665.29,5667.08 4477.46,6054.58 4007.33,6800.24 3542.13,6592.89 2612.71,6227.73 2123.85,6126.38 1380.09,6483.67 
			1242.67,6422.22 -22.61,5754.86 		" />
        <polyline fill="none" stroke="#FFFFFF" stroke-width="26.7778" stroke-miterlimit="10"
            points="7185.88,6270.05 6435.35,5986.62
			5612.4,5369.33 4425.31,5765.09 3937.3,6494.84 3458.43,6276.62 2496.11,5903.83 1994.56,5830.6 1273.95,6193.64 1140.73,6138.75 
			-107.08,5486.37 		" />
        <polyline fill="none" stroke="#FFFFFF" stroke-width="33.2222" stroke-miterlimit="10"
            points="7179.27,5953.78 6402.74,5712.98
			5559.51,5071.57 4373.15,5475.6 3867.27,6189.43 3374.73,5960.35 2379.51,5579.93 1865.28,5534.82 1167.81,5903.61 
			1038.8,5855.27 -191.56,5217.87 		" />
        <polyline fill="none" stroke="#FFFFFF" stroke-width="39.6667" stroke-miterlimit="10"
            points="7172.66,5637.52 6370.12,5439.33
			5506.62,4773.81 4321,5186.11 3797.24,5884.03 3291.02,5644.08 2262.91,5256.02 1735.99,5239.04 1061.66,5613.58 936.86,5571.8 
			-276.04,4949.37 		" />
        <polyline fill="none" stroke="#FFFFFF" stroke-width="46.1111" stroke-miterlimit="10"
            points="7166.05,5321.26 6337.5,5165.68
			5453.73,4476.06 4268.84,4896.63 3727.21,5578.63 3207.32,5327.81 2146.31,4932.12 1606.7,4943.26 955.52,5323.55 834.92,5288.33 
			-360.52,4680.88 		" />
        <polyline fill="none" stroke="#FFFFFF" stroke-width="52.5556" stroke-miterlimit="10"
            points="7159.44,5004.99 6304.88,4892.04
			5400.84,4178.3 4216.69,4607.14 3657.18,5273.23 3123.61,5011.54 2029.71,4608.22 1477.42,4647.48 849.37,5033.53 732.99,5004.85 
			-444.99,4412.38 		" />
        <polyline fill="none" stroke="#FFFFFF" stroke-width="59" stroke-miterlimit="10" points="7152.82,4688.73 6272.26,4618.39
			5347.95,3880.55 4164.53,4317.65 3587.15,4967.82 3039.91,4695.28 1913.11,4284.31 1348.13,4351.71 743.23,4743.5 631.05,4721.38 
			-529.47,4143.88 		" />
        <polyline fill="none" stroke="#FFFFFF" stroke-width="65.4444" stroke-miterlimit="10"
            points="7146.21,4372.47 6239.64,4344.75
			5295.06,3582.79 4112.38,4028.16 3517.12,4662.42 2956.21,4379.01 1796.51,3960.41 1218.84,4055.93 637.08,4453.47 
			529.11,4437.91 -613.95,3875.39 		" />
        <polyline fill="none" stroke="#FFFFFF" stroke-width="71.8889" stroke-miterlimit="10"
            points="7139.6,4056.21 6207.02,4071.1
			5242.17,3285.03 4060.22,3738.67 3447.09,4357.02 2872.5,4062.74 1679.91,3636.51 1089.56,3760.15 530.94,4163.44 427.17,4154.44 
			-698.43,3606.89 		" />
        <polyline fill="none" stroke="#FFFFFF" stroke-width="78.3333" stroke-miterlimit="10"
            points="7132.99,3739.94 6174.4,3797.45
			5189.28,2987.28 4008.06,3449.18 3377.05,4051.62 2788.8,3746.47 1563.31,3312.6 960.27,3464.37 424.8,3873.42 325.24,3870.96 
			-782.9,3338.39 		" />
        <polyline fill="none" stroke="#FFFFFF" stroke-width="84.7778" stroke-miterlimit="10"
            points="7126.38,3423.68 6141.79,3523.81
			5136.39,2689.52 3955.91,3159.69 3307.02,3746.21 2705.1,3430.2 1446.71,2988.7 830.98,3168.59 318.65,3583.39 223.3,3587.49 
			-867.38,3069.9 		" />
        <polyline fill="none" stroke="#FFFFFF" stroke-width="91.2222" stroke-miterlimit="10"
            points="7119.77,3107.42 6109.17,3250.16
			5083.5,2391.76 3903.75,2870.2 3236.99,3440.81 2621.39,3113.93 1330.11,2664.8 701.69,2872.81 212.51,3293.36 121.36,3304.02 
			-951.86,2801.4 		" />
        <polyline fill="none" stroke="#FFFFFF" stroke-width="97.6667" stroke-miterlimit="10"
            points="7113.16,2791.15 6076.55,2976.52
			5030.61,2094.01 3851.6,2580.72 3166.96,3135.41 2537.69,2797.67 1213.51,2340.9 572.41,2577.03 106.36,3003.33 19.43,3020.54 
			-1036.33,2532.9 		" />
        <polyline fill="none" stroke="#FFFFFF" stroke-width="104.1111" stroke-miterlimit="10"
            points="7106.55,2474.89 6043.93,2702.87
			4977.72,1796.25 3799.44,2291.23 3096.93,2830.01 2453.99,2481.4 1096.91,2016.99 443.12,2281.25 0.22,2713.3 -82.51,2737.07 
			-1120.81,2264.41 		" />
        <polyline fill="none" stroke="#FFFFFF" stroke-width="110.5556" stroke-miterlimit="10"
            points="7099.93,2158.63 6011.31,2429.22
			4924.83,1498.5 3747.29,2001.74 3026.9,2524.6 2370.28,2165.13 980.31,1693.09 313.83,1985.47 -105.93,2423.28 -184.45,2453.6 
			-1205.29,1995.91 		" />
        <polyline fill="none" stroke="#FFFFFF" stroke-width="117" stroke-miterlimit="10" points="7093.32,1842.37 5978.69,2155.58
			4871.94,1200.74 3695.13,1712.25 2956.87,2219.2 2286.58,1848.86 863.71,1369.19 184.55,1689.69 -212.07,2133.25 -286.39,2170.12 
			-1289.77,1727.41 		" />
        <polyline fill="none" stroke="#FFFFFF" stroke-width="123.4444" stroke-miterlimit="10"
            points="7086.71,1526.1 5946.07,1881.93
			4819.05,902.98 3642.97,1422.76 2886.84,1913.8 2202.87,1532.59 747.11,1045.28 55.26,1393.91 -318.21,1843.22 -388.32,1886.65 
			-1374.24,1458.92 		" />
        <polyline fill="none" stroke="#FFFFFF" stroke-width="129.8889" stroke-miterlimit="10"
            points="7080.1,1209.84 5913.45,1608.29
			4766.16,605.23 3590.82,1133.27 2816.81,1608.4 2119.17,1216.32 630.51,721.38 -74.03,1098.13 -424.36,1553.19 -490.26,1603.18 
			-1458.72,1190.42 		" />
        <polyline fill="none" stroke="#FFFFFF" stroke-width="136.3333" stroke-miterlimit="10"
            points="7073.49,893.58 5880.83,1334.64
			4713.27,307.47 3538.66,843.78 2746.78,1302.99 2035.47,900.05 513.91,397.48 -203.31,802.35 -530.5,1263.16 -592.2,1319.7 
			-1543.2,921.92 		" />
        <polyline fill="none" stroke="#FFFFFF" stroke-width="142.7778" stroke-miterlimit="10"
            points="7066.88,577.31 5848.22,1060.99
			4660.38,9.71 3486.51,554.29 2676.75,997.59 1951.76,583.79 397.31,73.57 -332.6,506.57 -636.65,973.14 -694.13,1036.23 
			-1627.68,653.43 		" />
        <polyline fill="none" stroke="#FFFFFF" stroke-width="149.2222" stroke-miterlimit="10"
            points="7060.27,261.05 5815.6,787.35
			4607.49,-288.04 3434.35,264.8 2606.72,692.19 1868.06,267.52 280.71,-250.33 -461.89,210.79 -742.79,683.11 -796.07,752.76 
			-1712.15,384.93 		" />
        <polyline fill="none" stroke="#FFFFFF" stroke-width="155.6667" stroke-miterlimit="10"
            points="7053.66,-55.21 5782.98,513.7
			4554.6,-585.8 3382.2,-24.68 2536.69,386.79 1784.36,-48.75 164.11,-574.23 -591.18,-84.99 -848.94,393.08 -898.01,469.28 
			-1796.63,116.43 		" />
        <polyline fill="none" stroke="#FFFFFF" stroke-width="162.1111" stroke-miterlimit="10"
            points="7047.04,-371.47 5750.36,240.06
			4501.71,-883.55 3330.04,-314.17 2466.66,81.38 1700.65,-365.02 47.51,-898.14 -720.46,-380.77 -955.08,103.05 -999.95,185.81 
			-1881.11,-152.06 		" />
        <polyline fill="none" stroke="#FFFFFF" stroke-width="168.5556" stroke-miterlimit="10"
            points="7040.43,-687.74 5717.74,-33.59
			4448.81,-1181.31 3277.89,-603.66 2396.63,-224.02 1616.95,-681.29 -69.08,-1222.04 -849.75,-676.55 -1061.23,-186.97 
			-1101.88,-97.66 -1965.59,-420.56 		" />
        <polyline fill="none" stroke="#FFFFFF" stroke-width="175" stroke-miterlimit="10" points="7033.82,-1004 5685.12,-307.24
			4395.92,-1479.07 3225.73,-893.15 2326.6,-529.42 1533.25,-997.56 -185.68,-1545.94 -979.04,-972.33 -1203.82,-381.13 
			-2050.06,-689.06 		" />
	</g>
</g>
</svg>
