<?xml version="1.0" encoding="utf-8"?>
<!-- Generator: Adobe Illustrator 24.1.1, SVG Export Plug-In . SVG Version: 6.00 Build 0)  -->
<svg version="1.1" id="Layer_1" xmlns="http://www.w3.org/2000/svg" xmlns:xlink="http://www.w3.org/1999/xlink" x="0px" y="0px"
	 viewBox="0 0 111.51 58" enable-background="new 0 0 111.51 58" xml:space="preserve">
<g>
	<g>
		<path fill="#4376BB" d="M8.22,46.71c-2.05-1.25-3.2-3.18-2.55-6.11c0.51-2.26,3.07-4,5.25-3.21c-1.1-2.47-1.37-5.63,0.43-7.64
			c1.94-2.16,5.97-1.79,7.48,0.7c0.01-2.54,0.71-5.07,1.99-7.27c1.22-2.08,3.53-4.01,5.82-3.26c1.44,0.47,2.37,1.86,3.02,3.23
			c1.1,2.31,1.73,4.84,1.86,7.4c0.43-2.67,4.1-4.01,6.33-2.48c2.23,1.53,2.51,5.07,0.8,7.17c1.46-0.88,3.53-0.25,4.53,1.14
			c1,1.39,1.06,3.29,0.5,4.91c-1.95,5.64-8.61,6.46-13.77,7.23C23.56,49.47,13.97,50.22,8.22,46.71z"/>
		<g>
			<path fill="#B4DFF7" d="M12.37,43.55c-0.44-0.43-0.98-0.61-1.51-0.9c-0.48-0.26-0.98-0.73-1.54-0.74
				c-0.27-0.01-0.56,0.25-0.54,0.54c0.07,0.69,0.74,1.19,1.29,1.55c0.64,0.43,1.25,0.69,2.03,0.57
				C12.57,44.49,12.67,43.84,12.37,43.55z"/>
			<path fill="#B4DFF7" d="M16.35,37.02c-0.44-0.5-0.91-1.02-1.47-1.38c-0.41-0.27-0.92,0.17-0.81,0.62
				c0.2,0.78,1.55,3.29,2.63,2.46C17.31,38.25,16.71,37.42,16.35,37.02z"/>
			<path fill="#B4DFF7" d="M23.93,31.43c-0.16-0.56-0.28-1.15-0.69-1.59c-0.32-0.35-0.86-0.15-1,0.26
				c-0.19,0.57-0.02,1.19,0.11,1.76c0.14,0.62,0.26,1.18,0.59,1.73c0.36,0.61,1.4,0.38,1.38-0.37
				C24.29,32.59,24.1,32.04,23.93,31.43z"/>
			<path fill="#B4DFF7" d="M34.22,32.48c0.02-0.27-0.31-0.34-0.48-0.2c-0.19,0.15-0.36,0.2-0.51,0.39c-0.16,0.19-0.3,0.39-0.43,0.59
				c-0.26,0.41-0.52,0.79-0.68,1.25c-0.11,0.32,0.1,0.69,0.4,0.81c0.34,0.14,0.65,0,0.86-0.28c0.27-0.38,0.43-0.85,0.62-1.28
				c0.09-0.2,0.17-0.4,0.22-0.62C34.26,32.92,34.2,32.71,34.22,32.48z"/>
			<path fill="#B4DFF7" d="M39.67,39.55c-0.61,0.07-1.11,0.47-1.59,0.83c-0.5,0.39-1.04,0.78-1.2,1.42c-0.12,0.48,0.31,0.92,0.8,0.8
				c0.6-0.15,0.99-0.63,1.42-1.05c0.41-0.4,0.87-0.77,1.09-1.3C40.33,39.94,40,39.51,39.67,39.55z"/>
			<path fill="#B4DFF7" d="M22.44,43.99c-0.19-0.5-0.48-0.86-0.88-1.21c-0.37-0.32-0.72-0.69-1.17-0.89
				c-0.4-0.17-0.81,0.11-0.73,0.56c0.1,0.53,0.44,0.95,0.77,1.36c0.35,0.43,0.75,0.76,1.3,0.89C22.12,44.8,22.61,44.43,22.44,43.99z
				"/>
			<path fill="#B4DFF7" d="M28.87,39.41c-0.67,0.64-1.22,1.49-1.4,2.4c-0.15,0.74,0.73,1.06,1.16,0.49c0.49-0.64,0.88-1.4,1.21-2.14
				C30.12,39.54,29.41,38.9,28.87,39.41z"/>
		</g>
	</g>
	<g>
		<path fill="#4376BB" d="M78.3,50.36c-1.37-1.13-2.02-2.66-1.24-4.74c0.6-1.61,2.66-2.62,4.18-1.81c-0.55-1.92-0.42-4.27,1.1-5.56
			c1.64-1.39,4.56-0.7,5.41,1.28c0.27-1.86,1.04-3.65,2.21-5.12c1.11-1.4,3-2.57,4.6-1.79c1.01,0.49,1.55,1.61,1.88,2.68
			c0.57,1.81,0.77,3.73,0.6,5.62c0.59-1.91,3.42-2.52,4.9-1.17c1.48,1.35,1.32,3.98-0.15,5.34c1.16-0.5,2.61,0.18,3.2,1.3
			c0.59,1.12,0.44,2.52-0.14,3.65c-2.01,3.93-6.98,3.85-10.84,3.89C89.26,53.97,82.15,53.53,78.3,50.36z"/>
		<g>
			<path fill="#B4DFF7" d="M81.67,48.47c-0.28-0.36-0.65-0.55-1.01-0.82c-0.33-0.24-0.64-0.63-1.05-0.7
				c-0.2-0.03-0.44,0.13-0.45,0.34c-0.02,0.51,0.42,0.95,0.79,1.27c0.43,0.38,0.85,0.64,1.43,0.63
				C81.71,49.18,81.86,48.72,81.67,48.47z"/>
			<path fill="#B4DFF7" d="M85.26,44.09c-0.27-0.41-0.56-0.84-0.94-1.17c-0.28-0.24-0.69,0.03-0.65,0.37
				c0.07,0.59,0.79,2.57,1.67,2.07C85.83,45.09,85.48,44.42,85.26,44.09z"/>
			<path fill="#B4DFF7" d="M91.39,40.78c-0.06-0.43-0.09-0.87-0.34-1.23c-0.2-0.29-0.62-0.2-0.76,0.09c-0.2,0.4-0.13,0.87-0.1,1.3
				c0.04,0.47,0.07,0.9,0.25,1.33c0.2,0.48,0.99,0.42,1.05-0.13C91.53,41.66,91.45,41.24,91.39,40.78z"/>
			<path fill="#B4DFF7" d="M98.82,42.6c0.04-0.2-0.19-0.28-0.33-0.2c-0.15,0.09-0.28,0.11-0.42,0.23c-0.13,0.12-0.26,0.25-0.37,0.39
				c-0.23,0.27-0.46,0.53-0.63,0.85c-0.12,0.22,0,0.52,0.21,0.64c0.23,0.13,0.48,0.07,0.66-0.12c0.24-0.25,0.4-0.58,0.58-0.87
				c0.08-0.14,0.16-0.28,0.22-0.43C98.81,42.93,98.79,42.77,98.82,42.6z"/>
			<path fill="#B4DFF7" d="M102.09,48.35c-0.45-0.01-0.86,0.23-1.25,0.45c-0.41,0.23-0.84,0.46-1.02,0.92
				c-0.14,0.34,0.13,0.71,0.5,0.67c0.46-0.05,0.79-0.36,1.15-0.63c0.34-0.25,0.72-0.48,0.93-0.84
				C102.54,48.7,102.34,48.35,102.09,48.35z"/>
			<path fill="#B4DFF7" d="M89.01,49.83c-0.09-0.39-0.26-0.68-0.52-0.98c-0.24-0.27-0.46-0.58-0.77-0.77
				c-0.28-0.17-0.61,0-0.59,0.34c0.02,0.4,0.22,0.74,0.42,1.08c0.21,0.35,0.47,0.64,0.86,0.79C88.69,50.39,89.08,50.17,89.01,49.83z
				"/>
			<path fill="#B4DFF7" d="M94.19,47.13c-0.56,0.4-1.05,0.96-1.27,1.61c-0.18,0.53,0.43,0.85,0.8,0.48c0.43-0.42,0.79-0.94,1.1-1.44
				C95.09,47.36,94.64,46.81,94.19,47.13z"/>
		</g>
	</g>
	<g>
		<path fill="#4376BB" d="M69.38,51.04c-0.85-0.44-1.37-1.17-1.19-2.36c0.14-0.92,1.11-1.68,2-1.43c-0.51-0.95-0.71-2.21-0.05-3.06
			c0.71-0.92,2.33-0.89,3,0.06c-0.07-1.01,0.13-2.04,0.58-2.96c0.42-0.86,1.29-1.7,2.22-1.47c0.59,0.14,1,0.67,1.3,1.2
			c0.5,0.89,0.83,1.88,0.96,2.9c0.09-1.08,1.52-1.72,2.45-1.17c0.93,0.54,1.15,1.95,0.53,2.83c0.56-0.4,1.4-0.2,1.84,0.32
			c0.44,0.52,0.52,1.28,0.34,1.94c-0.61,2.31-3.25,2.83-5.28,3.28C75.58,51.7,71.78,52.28,69.38,51.04z"/>
		<g>
			<path fill="#B4DFF7" d="M70.94,49.66c-0.19-0.16-0.41-0.22-0.63-0.32c-0.2-0.09-0.41-0.26-0.64-0.25c-0.11,0-0.22,0.12-0.2,0.23
				c0.05,0.27,0.33,0.45,0.56,0.58c0.27,0.15,0.52,0.24,0.83,0.17C71.05,50.03,71.07,49.77,70.94,49.66z"/>
			<path fill="#B4DFF7" d="M72.34,46.94c-0.19-0.19-0.39-0.38-0.63-0.51c-0.17-0.09-0.36,0.1-0.3,0.27c0.1,0.3,0.71,1.27,1.12,0.9
				C72.76,47.41,72.49,47.09,72.34,46.94z"/>
			<path fill="#B4DFF7" d="M75.2,44.5c-0.08-0.22-0.15-0.45-0.32-0.61c-0.14-0.13-0.35-0.03-0.39,0.13c-0.06,0.23,0.03,0.48,0.1,0.7
				c0.07,0.24,0.14,0.46,0.28,0.67c0.16,0.23,0.57,0.11,0.54-0.19C75.38,44.95,75.29,44.73,75.2,44.5z"/>
			<path fill="#B4DFF7" d="M79.33,44.61c0-0.11-0.13-0.13-0.2-0.07c-0.07,0.06-0.14,0.09-0.19,0.17c-0.06,0.08-0.11,0.16-0.15,0.25
				c-0.09,0.17-0.18,0.33-0.24,0.52c-0.04,0.13,0.06,0.27,0.18,0.31c0.14,0.04,0.26-0.02,0.33-0.14c0.1-0.16,0.15-0.35,0.21-0.53
				c0.03-0.08,0.05-0.17,0.07-0.25C79.36,44.79,79.33,44.71,79.33,44.61z"/>
			<path fill="#B4DFF7" d="M81.71,47.28c-0.24,0.05-0.43,0.22-0.61,0.38c-0.19,0.17-0.39,0.34-0.44,0.6
				c-0.03,0.2,0.15,0.36,0.34,0.3c0.24-0.08,0.38-0.28,0.54-0.46c0.15-0.17,0.32-0.33,0.4-0.55C81.99,47.41,81.84,47.25,81.71,47.28
				z"/>
			<path fill="#B4DFF7" d="M74.97,49.55c-0.09-0.19-0.22-0.33-0.39-0.46c-0.16-0.12-0.31-0.25-0.49-0.32
				c-0.17-0.06-0.32,0.07-0.27,0.24c0.05,0.21,0.2,0.37,0.35,0.52c0.15,0.16,0.32,0.28,0.54,0.32
				C74.87,49.88,75.05,49.72,74.97,49.55z"/>
			<path fill="#B4DFF7" d="M77.4,47.53c-0.25,0.27-0.44,0.63-0.49,1c-0.04,0.3,0.32,0.4,0.48,0.16c0.18-0.27,0.31-0.58,0.42-0.89
				C77.9,47.55,77.6,47.31,77.4,47.53z"/>
		</g>
		<g>
			<linearGradient id="SVGID_1_" gradientUnits="userSpaceOnUse" x1="55.4873" y1="12.6312" x2="69.5064" y2="12.6312">
				<stop  offset="0" style="stop-color:#E14E3E"/>
				<stop  offset="1" style="stop-color:#F19484"/>
			</linearGradient>
			<path fill="url(#SVGID_1_)" d="M69.23,4.32c0,0,0.39-0.25-0.21-0.62c0,0-0.01-0.11-0.03-0.26c-0.04-0.26-0.14-0.65-0.35-0.82
				c-0.08-0.06-0.17-0.09-0.28-0.07c0,0-0.11-0.64-0.57-0.16c-0.24,0.25-0.72,0.63-1.13,0.95c-0.43,0.33-0.71,0.82-0.8,1.36
				c-0.06,0.36-0.16,0.78-0.34,1.2c-0.41,0.96-2.52,4.19-3.82,5.36c-1.31,1.17-2.68,3.62-2.68,3.62l-3.53,4.16
				c0.66,0.83,1.53,2.17,2.21,4.01c0.96-0.83,2.28-2.23,3.04-4.21c0.42-1.08,1.13-2.03,2.1-2.65c1.09-0.7,2.45-2.15,3.14-5.19
				c0.64-2.84,1.37-3.89,1.37-3.89s1.97-0.6,1.92-1.97C69.28,5.14,69.82,4.68,69.23,4.32z"/>
			<linearGradient id="SVGID_2_" gradientUnits="userSpaceOnUse" x1="72.22" y1="31.4748" x2="72.22" y2="2.3981">
				<stop  offset="0" style="stop-color:#E14E3E"/>
				<stop  offset="1" style="stop-color:#F19484"/>
			</linearGradient>
			<path fill="url(#SVGID_2_)" d="M68.99,3.44c0.67,0.26,1.06-0.18,1.06-0.18l1.74,0.64c0,0,1.37,5.86-0.14,12.18
				c0,0-0.96,1.19-1.19,3.39l-1.49,5.16c1.22,1.11,3.25,2.19,5.96,0.96c-0.06-0.89-0.15-1.83-0.29-2.8
				c-0.22-1.55-0.1-3.13,0.37-4.62c0.61-1.97,1.21-5.07,0.4-8.26c-1.34-5.31,0.37-7.33-0.24-7.94c-0.61-0.61-1.73-0.27-2.55,0.05
				c-0.82,0.32-1.83-0.37-2.34-0.41c-0.5-0.05-0.96,0.55-0.96,0.55s-0.43,0.2-0.68,0.46C68.85,2.78,68.94,3.17,68.99,3.44z"/>
			<g>
				<defs>
					<path id="XMLID_8_" d="M79.08,39.49c-1.39-1.39-3.01-2.85-4.83-4.17c0,0,1.07-3.99,0.68-9.73c-2.71,1.23-4.74,0.15-5.96-0.96
						l-1.03,3.58c0,0-1.69,3.86-1.02,10.82c0,0,4.76,4.44,11.27,6.74C77.81,42.17,78.5,40.35,79.08,39.49z"/>
				</defs>
				<linearGradient id="XMLID_2_" gradientUnits="userSpaceOnUse" x1="72.9246" y1="48.5122" x2="72.9246" y2="24.9914">
					<stop  offset="0" style="stop-color:#03505A"/>
					<stop  offset="1" style="stop-color:#007283"/>
				</linearGradient>
				<use xlink:href="#XMLID_8_"  overflow="visible" fill="url(#XMLID_2_)"/>
				<clipPath id="XMLID_3_">
					<use xlink:href="#XMLID_8_"  overflow="visible"/>
				</clipPath>
				<polygon opacity="0.2" clip-path="url(#XMLID_3_)" fill="none" stroke="#FFFFFF" stroke-miterlimit="10" points="73.44,43.5 
					77,45.77 76.95,41.57 				"/>
				<polygon opacity="0.2" clip-path="url(#XMLID_3_)" fill="none" stroke="#FFFFFF" stroke-miterlimit="10" points="71.86,37 
					75.82,35.54 72.45,33.03 				"/>
				<polygon opacity="0.2" clip-path="url(#XMLID_3_)" fill="none" stroke="#FFFFFF" stroke-miterlimit="10" points="65.57,34.92 
					69.79,34.8 67.4,31.35 				"/>
				<polygon opacity="0.2" clip-path="url(#XMLID_3_)" fill="none" stroke="#FFFFFF" stroke-miterlimit="10" points="67.25,27.36 
					70.98,29.34 70.6,25.16 				"/>
				<polygon opacity="0.2" clip-path="url(#XMLID_3_)" fill="none" stroke="#FFFFFF" stroke-miterlimit="10" points="73.25,41.43 
					75.67,41.5 74.4,39.44 				"/>
				<polygon opacity="0.2" clip-path="url(#XMLID_3_)" fill="none" stroke="#FFFFFF" stroke-miterlimit="10" points="75.69,38.99 
					79.3,38.03 76.53,35.54 				"/>
				<polygon opacity="0.2" clip-path="url(#XMLID_3_)" fill="none" stroke="#FFFFFF" stroke-miterlimit="10" points="73.29,27.28 
					75.71,27.34 74.45,25.29 				"/>
				<polygon opacity="0.2" clip-path="url(#XMLID_3_)" fill="none" stroke="#FFFFFF" stroke-miterlimit="10" points="73.65,31.9 
					74.64,29.69 72.26,30.07 				"/>
				<polygon opacity="0.2" clip-path="url(#XMLID_3_)" fill="none" stroke="#FFFFFF" stroke-miterlimit="10" points="69.43,41.57 
					71.5,39.13 68.35,38.73 				"/>
			</g>
			<linearGradient id="SVGID_3_" gradientUnits="userSpaceOnUse" x1="74.8764" y1="38.4768" x2="94.0511" y2="56.308">
				<stop  offset="0" style="stop-color:#E14E3E"/>
				<stop  offset="1" style="stop-color:#F19484"/>
			</linearGradient>
			<path fill="url(#SVGID_3_)" d="M95.07,54.24c-0.66-0.7-1.6-1.64-2.56-2.43c-1.46-1.21-2.26-4.45-5.7-5.71
				c-1.8-0.66-3.42-1.72-4.64-3.2c-0.82-0.99-1.86-2.17-3.09-3.41c-0.58,0.86-1.27,2.68-0.89,6.29c0.93,0.33,1.9,0.61,2.9,0.84
				c0,0,2.75,2.56,6.29,3.42c3.54,0.85,4.89,3.79,4.89,3.79l0.16,0.76c0.08,0.39,0.43,0.67,0.83,0.67h1.37
				C95.16,55.26,95.43,54.63,95.07,54.24z"/>
			<linearGradient id="SVGID_4_" gradientUnits="userSpaceOnUse" x1="49.3709" y1="31.4748" x2="49.3709" y2="56.7667">
				<stop  offset="0" style="stop-color:#E14E3E"/>
				<stop  offset="1" style="stop-color:#F19484"/>
			</linearGradient>
			<path fill="url(#SVGID_4_)" d="M49.88,39.23c0.02,0.26,0,0.53-0.05,0.79c-0.21,1.04-0.4,2.9,0.12,5.16
				c0.21,0.9,0.24,1.83,0.07,2.74l-1.18,6.03h-1.77c0,0-0.78-0.11-0.91,0.19c-0.31,0.01-0.45,0.13-0.37,0.35
				c0,0-0.75-0.06-0.58,0.34c0,0-0.61,0.14-0.43,0.44h3.27l-0.38,0.52c0,0-0.38,0.46-0.11,0.58c0.27,0.12,0.7-0.15,0.95-0.43h0.68
				c0.73,0,1.34-0.56,1.4-1.28c0.06-0.76,0.89-3.82,2.05-5.28c1.01-1.27,1.66-2.95,1.2-4.5c-0.18-0.62-0.29-1.26-0.29-1.9l0-4.44
				C52.34,39.21,50.98,39.31,49.88,39.23z"/>
			<linearGradient id="SVGID_5_" gradientUnits="userSpaceOnUse" x1="57.3219" y1="51.7343" x2="59.1539" y2="17.293">
				<stop  offset="0" style="stop-color:#060707"/>
				<stop  offset="1" style="stop-color:#4A5D6B"/>
			</linearGradient>
			<path fill="url(#SVGID_5_)" d="M67.95,28.22l-11.4-4.31c0,0,0.49-0.3,1.16-0.87c-0.68-1.85-1.55-3.18-2.21-4.01l-0.04,0.05
				c0,0-3.31,0.89-4.3,3.97c-0.22,0.69-0.58,1.32-1.09,1.83l-0.77,0.77l-0.51,3.72l0.29,2.85c0.05,0.47,0.03,0.94-0.05,1.41
				c-0.14,0.84-0.24,2.54,0.64,4.62c0.13,0.31,0.2,0.64,0.22,0.97c1.1,0.08,2.46-0.02,3.67-0.7v-2.05l13.37,2.56
				C68.63,34.96,67.95,28.22,67.95,28.22z"/>
			<linearGradient id="SVGID_6_" gradientUnits="userSpaceOnUse" x1="47.1223" y1="28.2205" x2="50.4828" y2="28.2205">
				<stop  offset="0" style="stop-color:#E14E3E"/>
				<stop  offset="1" style="stop-color:#F19484"/>
			</linearGradient>
			<path fill="url(#SVGID_6_)" d="M49.24,29.4l-0.46-0.02l-1.66-1.55l2.11-0.8l0.1,0c0.64,0.02,1.15,0.54,1.15,1.18l0,0
				C50.48,28.9,49.92,29.44,49.24,29.4z"/>
			<linearGradient id="SVGID_7_" gradientUnits="userSpaceOnUse" x1="47.3264" y1="32.3908" x2="47.3264" y2="24.9407">
				<stop  offset="0" style="stop-color:#E14E3E"/>
				<stop  offset="1" style="stop-color:#F19484"/>
			</linearGradient>
			<path fill="url(#SVGID_7_)" d="M48.05,27.83v0.28c0,0.81-0.66,1.47-1.47,1.47l0,0c-0.81,0-1.47-0.66-1.47-1.47v-2.12
				c0-0.49,1.06-0.68,1.06-0.68s1.73-0.41,3.12,0.36c0.15,0.08,0.25,0.24,0.25,0.42v0.35c0,0.4-0.2,0.77-0.54,0.98
				C48.65,27.63,48.26,27.83,48.05,27.83z"/>
			<linearGradient id="SVGID_8_" gradientUnits="userSpaceOnUse" x1="46.2664" y1="32.3297" x2="46.2664" y2="24.2577">
				<stop  offset="0" style="stop-color:#854E34"/>
				<stop  offset="1" style="stop-color:#A89C34"/>
			</linearGradient>
			<path fill="url(#SVGID_8_)" d="M45.11,25.92c0,0.19,0,0.45,0,0.69c0,0.27,0.29,0.43,0.52,0.29l0.06-0.04
				c0.09-0.05,0.19-0.08,0.29-0.08l0,0c0.23,0,0.44,0.14,0.52,0.36l0.01,0.04c0.06,0.17,0.22,0.28,0.4,0.27
				c0.34-0.01,0.84-0.02,0.84,0.01c0,0.04,0,0.35,0,0.35h-0.21c-0.38,0-0.75,0.19-0.94,0.52c-0.11,0.2-0.15,0.43,0.04,0.64
				c0.48,0.54,1.25-0.21,1.29-0.5h0.83v0.93c0,0-0.3,0.54-1.27,0.54c-0.81,0-1.85,0-1.85,0s-0.75,0.23-0.92-0.64
				c-0.03-0.16-0.76-0.09-0.95-0.81c-0.16-0.5,0.27-0.87,0.27-0.87s-0.33-0.14-0.27-0.62c0.03-0.23,0.19-0.36,0.34-0.43
				c0.16-0.08,0.26-0.23,0.29-0.41c0.03-0.26,0.09-0.49,0.32-0.55C44.93,25.55,45.11,25.72,45.11,25.92z"/>
		</g>
	</g>
</g>
</svg>
