<?xml version="1.0" encoding="utf-8"?>
<!-- Generator: Adobe Illustrator 24.1.1, SVG Export Plug-In . SVG Version: 6.00 Build 0)  -->
<svg version="1.1" id="Layer_1" xmlns="http://www.w3.org/2000/svg" xmlns:xlink="http://www.w3.org/1999/xlink" x="0px" y="0px"
	 viewBox="0 0 102.32 58" enable-background="new 0 0 102.32 58" xml:space="preserve">
<g>
	<g>
		<path fill="#B4DFF7" d="M15.38,49.37c-0.72-1.45-0.85-3.16-0.55-4.75c0.3-1.54,0.99-3.06,0.79-4.61
			c-0.15-1.18-0.81-2.22-1.36-3.27c-1-1.87-1.74-3.92-1.81-6.04s0.58-4.32,2.07-5.83c0.5-0.51,1.09-0.94,1.47-1.54
			c1.03-1.64,0.6-3.82,0.49-5.64c-0.08-1.34-0.06-2.72,0.4-3.98c1.23-3.32,5.1-3.25,7.56-1.27c1.61,1.3,2.58,3.3,2.87,5.35
			c0.19,1.33,0.1,2.71,0.39,4.02c0.31,1.4,1.09,2.31,1.81,3.5c1.29,2.11,1.54,4.82,0.68,7.14c-0.46,1.23-1.22,2.41-1.23,3.72
			c-0.01,1.53,1.01,2.85,1.52,4.3c1.46,4.13-0.88,9.18-4.7,11.1C22.59,53.16,17.19,53,15.38,49.37z"/>
		<path fill="#4376BB" d="M27.78,39.65c-0.01-0.03-0.05-0.03-0.07-0.01c-0.79,0.7-1.05,2-1.67,2.88c-0.75,1.06-1.81,2.52-3.15,2.88
			c-0.1-3.15-0.26-6.3-0.43-9.44c-0.01-0.2-0.02-0.39-0.03-0.59c1.55-0.63,2.59-2.4,3.33-3.81c0.86-1.65,1.73-3.64,1.92-5.5
			c0.01-0.14-0.18-0.17-0.25-0.07c-1.63,2.63-2.17,6.68-5.05,8.4c-0.19-3.17-0.42-6.33-0.62-9.5c-0.04-0.56-0.06-1.12-0.09-1.68
			c1.8-1.46,3.95-4.18,3.49-6.6c-0.02-0.1-0.17-0.11-0.21-0.03c-0.53,1-0.69,2.14-1.25,3.14c-0.54,0.96-1.24,1.81-2.06,2.53
			c-0.11-2.74-0.17-5.51-0.58-8.19c-0.03-0.22-0.36-0.15-0.37,0.05c-0.14,2.63,0.05,5.31,0.21,7.97c-0.53-0.56-1.02-1.14-1.47-1.77
			c-0.57-0.8-0.92-1.74-1.51-2.52c-0.09-0.12-0.33-0.1-0.32,0.09c0.08,2.02,1.79,4.21,3.29,5.44c0.03,0.02,0.06,0.04,0.08,0.06
			c0.03,0.6,0.06,1.2,0.08,1.8c0.1,3.03,0.19,6.06,0.3,9.09c-2.64-1.84-4.2-4.85-6.25-7.26c-0.17-0.2-0.44,0.06-0.34,0.26
			c0.8,1.73,2.03,3.32,3.2,4.81c1,1.28,2.07,2.47,3.45,3.35c0.01,0.26,0.02,0.53,0.03,0.79c0.13,2.94,0.27,5.89,0.37,8.83
			c-0.72-0.56-1.41-1.18-2.05-1.84c-0.78-0.81-1.44-1.77-2.28-2.51c-0.13-0.11-0.35-0.01-0.29,0.17c0.65,2.23,2.82,4.1,4.66,5.43
			c0.11,3.96,0.13,7.92-0.08,11.88c-0.04,0.69,1.04,0.69,1.08,0c0.2-3.95,0.2-7.91,0.08-11.87c1.5-0.35,2.57-1.56,3.48-2.77
			C27.11,42.62,28.37,40.87,27.78,39.65z"/>
	</g>
	<g>
		<path fill="#B4DFF7" d="M4.25,51.88c-0.49-0.99-0.58-2.15-0.37-3.24c0.2-1.05,0.67-2.09,0.54-3.15c-0.11-0.81-0.55-1.52-0.93-2.24
			c-0.68-1.28-1.19-2.68-1.24-4.13c-0.05-1.45,0.4-2.95,1.41-3.98c0.34-0.35,0.74-0.64,1-1.05c0.71-1.12,0.41-2.61,0.34-3.85
			c-0.05-0.91-0.04-1.86,0.28-2.71c0.84-2.27,3.48-2.22,5.16-0.86c1.1,0.89,1.76,2.25,1.96,3.65c0.13,0.91,0.07,1.85,0.27,2.74
			c0.21,0.96,0.74,1.57,1.24,2.39c0.88,1.44,1.05,3.29,0.47,4.87c-0.31,0.84-0.83,1.64-0.84,2.54c-0.01,1.04,0.69,1.95,1.04,2.93
			c1,2.82-0.6,6.27-3.21,7.57C9.17,54.47,5.48,54.37,4.25,51.88z"/>
		<path fill="#4376BB" d="M12.72,45.25c-0.01-0.02-0.03-0.02-0.05-0.01c-0.54,0.48-0.72,1.37-1.14,1.96
			c-0.51,0.72-1.24,1.72-2.15,1.97c-0.07-2.15-0.18-4.3-0.29-6.44c-0.01-0.13-0.02-0.27-0.02-0.4c1.06-0.43,1.77-1.63,2.27-2.6
			c0.59-1.13,1.18-2.48,1.31-3.76c0.01-0.09-0.13-0.12-0.17-0.05c-1.11,1.8-1.48,4.56-3.45,5.74c-0.13-2.16-0.29-4.32-0.42-6.48
			c-0.02-0.38-0.04-0.77-0.06-1.15c1.23-1,2.69-2.86,2.38-4.51c-0.01-0.07-0.12-0.08-0.15-0.02c-0.36,0.68-0.47,1.46-0.86,2.14
			c-0.37,0.65-0.85,1.23-1.41,1.73c-0.07-1.87-0.12-3.76-0.4-5.59c-0.02-0.15-0.24-0.1-0.25,0.03c-0.09,1.79,0.04,3.62,0.15,5.44
			c-0.36-0.38-0.7-0.77-1-1.21c-0.39-0.55-0.63-1.19-1.03-1.72c-0.06-0.08-0.22-0.07-0.22,0.06c0.06,1.38,1.23,2.88,2.24,3.71
			c0.02,0.02,0.04,0.03,0.06,0.04c0.02,0.41,0.04,0.82,0.06,1.23c0.07,2.07,0.13,4.14,0.21,6.21c-1.8-1.26-2.86-3.31-4.27-4.95
			c-0.12-0.14-0.3,0.04-0.23,0.18c0.55,1.18,1.39,2.26,2.18,3.28c0.68,0.88,1.42,1.68,2.35,2.29c0.01,0.18,0.01,0.36,0.02,0.54
			c0.09,2.01,0.19,4.02,0.25,6.03c-0.49-0.39-0.96-0.8-1.4-1.26c-0.53-0.55-0.99-1.21-1.56-1.71c-0.09-0.08-0.24,0-0.2,0.12
			c0.44,1.52,1.93,2.8,3.18,3.71c0.08,2.7,0.09,5.41-0.05,8.11c-0.02,0.47,0.71,0.47,0.73,0c0.14-2.7,0.13-5.4,0.06-8.1
			c1.02-0.24,1.75-1.06,2.38-1.89C12.26,47.28,13.11,46.08,12.72,45.25z"/>
	</g>
	<path fill="#B4DFF7" d="M76.2,50.94c-0.32-0.64-0.38-1.39-0.24-2.09c0.13-0.68,0.44-1.35,0.35-2.03c-0.07-0.52-0.35-0.98-0.6-1.44
		c-0.44-0.82-0.77-1.73-0.8-2.66c-0.03-0.93,0.26-1.9,0.91-2.57c0.22-0.22,0.48-0.41,0.65-0.68c0.46-0.72,0.26-1.68,0.22-2.48
		c-0.03-0.59-0.03-1.2,0.18-1.75c0.54-1.46,2.25-1.43,3.33-0.56c0.71,0.57,1.13,1.45,1.26,2.36c0.08,0.59,0.04,1.19,0.17,1.77
		c0.14,0.62,0.48,1.02,0.8,1.54c0.57,0.93,0.68,2.12,0.3,3.14c-0.2,0.54-0.54,1.06-0.54,1.64c0,0.67,0.44,1.26,0.67,1.89
		c0.64,1.82-0.39,4.04-2.07,4.88C79.38,52.61,77,52.54,76.2,50.94z"/>
	<path fill="#4376BB" d="M81.66,46.66c-0.01-0.01-0.02-0.01-0.03,0c-0.35,0.31-0.46,0.88-0.73,1.27c-0.33,0.47-0.8,1.11-1.39,1.27
		c-0.04-1.39-0.12-2.77-0.19-4.16c0-0.09-0.01-0.17-0.02-0.26c0.68-0.28,1.14-1.05,1.46-1.68c0.38-0.73,0.76-1.6,0.84-2.42
		c0.01-0.06-0.08-0.08-0.11-0.03c-0.72,1.16-0.96,2.94-2.22,3.7c-0.08-1.39-0.19-2.79-0.27-4.18c-0.02-0.25-0.03-0.49-0.04-0.74
		c0.79-0.64,1.74-1.84,1.54-2.91c-0.01-0.04-0.07-0.05-0.09-0.01c-0.23,0.44-0.31,0.94-0.55,1.38c-0.24,0.42-0.55,0.8-0.91,1.12
		c-0.05-1.21-0.08-2.43-0.26-3.61c-0.01-0.1-0.16-0.07-0.16,0.02c-0.06,1.16,0.02,2.34,0.09,3.51c-0.23-0.25-0.45-0.5-0.65-0.78
		c-0.25-0.35-0.41-0.77-0.66-1.11c-0.04-0.05-0.14-0.04-0.14,0.04c0.04,0.89,0.79,1.85,1.45,2.4c0.01,0.01,0.02,0.02,0.04,0.02
		c0.01,0.27,0.03,0.53,0.04,0.79c0.05,1.33,0.08,2.67,0.13,4c-1.16-0.81-1.85-2.13-2.75-3.19c-0.08-0.09-0.19,0.02-0.15,0.12
		c0.35,0.76,0.89,1.46,1.41,2.12c0.44,0.57,0.91,1.09,1.52,1.47c0,0.12,0.01,0.23,0.01,0.35c0.06,1.3,0.12,2.59,0.16,3.89
		c-0.32-0.25-0.62-0.52-0.9-0.81c-0.34-0.36-0.64-0.78-1-1.11c-0.06-0.05-0.15,0-0.13,0.08c0.29,0.98,1.24,1.81,2.05,2.39
		c0.05,1.74,0.06,3.49-0.03,5.23c-0.02,0.3,0.46,0.3,0.47,0c0.09-1.74,0.09-3.48,0.04-5.22c0.66-0.15,1.13-0.69,1.53-1.22
		C81.37,47.97,81.92,47.2,81.66,46.66z"/>
	<path fill="#B4DFF7" d="M81.52,49.73c-0.32-0.64-0.38-1.39-0.24-2.09c0.13-0.68,0.44-1.35,0.35-2.03c-0.07-0.52-0.35-0.98-0.6-1.44
		c-0.44-0.82-0.77-1.73-0.8-2.66s0.26-1.9,0.91-2.57c0.22-0.22,0.48-0.41,0.65-0.68c0.46-0.72,0.26-1.68,0.22-2.48
		c-0.03-0.59-0.03-1.2,0.18-1.75c0.54-1.46,2.25-1.43,3.33-0.56c0.71,0.57,1.13,1.45,1.26,2.36c0.08,0.59,0.04,1.19,0.17,1.77
		c0.14,0.62,0.48,1.02,0.8,1.54c0.57,0.93,0.68,2.12,0.3,3.14c-0.2,0.54-0.54,1.06-0.54,1.64c0,0.67,0.44,1.26,0.67,1.89
		c0.64,1.82-0.39,4.04-2.07,4.88C84.69,51.4,82.31,51.33,81.52,49.73z"/>
	<path fill="#4376BB" d="M86.98,45.45c-0.01-0.01-0.02-0.01-0.03,0c-0.35,0.31-0.46,0.88-0.73,1.27c-0.33,0.47-0.8,1.11-1.39,1.27
		c-0.04-1.39-0.12-2.77-0.19-4.16c0-0.09-0.01-0.17-0.02-0.26c0.68-0.28,1.14-1.05,1.46-1.68c0.38-0.73,0.76-1.6,0.84-2.42
		c0.01-0.06-0.08-0.08-0.11-0.03c-0.72,1.16-0.96,2.94-2.22,3.7c-0.08-1.39-0.19-2.79-0.27-4.18c-0.02-0.25-0.03-0.49-0.04-0.74
		c0.79-0.64,1.74-1.84,1.54-2.91c-0.01-0.04-0.07-0.05-0.09-0.01c-0.23,0.44-0.31,0.94-0.55,1.38c-0.24,0.42-0.55,0.8-0.91,1.12
		c-0.05-1.21-0.08-2.43-0.26-3.61c-0.01-0.1-0.16-0.07-0.16,0.02c-0.06,1.16,0.02,2.34,0.09,3.51c-0.23-0.25-0.45-0.5-0.65-0.78
		c-0.25-0.35-0.41-0.77-0.66-1.11c-0.04-0.05-0.14-0.04-0.14,0.04c0.04,0.89,0.79,1.85,1.45,2.4c0.01,0.01,0.02,0.02,0.04,0.02
		c0.01,0.27,0.03,0.53,0.04,0.79c0.05,1.33,0.08,2.67,0.13,4c-1.16-0.81-1.85-2.13-2.75-3.19c-0.08-0.09-0.19,0.02-0.15,0.12
		c0.35,0.76,0.89,1.46,1.41,2.12c0.44,0.57,0.91,1.09,1.52,1.47c0,0.12,0.01,0.23,0.01,0.35c0.06,1.3,0.12,2.59,0.16,3.89
		c-0.32-0.25-0.62-0.52-0.9-0.81c-0.34-0.36-0.64-0.78-1-1.11c-0.06-0.05-0.15,0-0.13,0.08c0.29,0.98,1.24,1.81,2.05,2.39
		c0.05,1.74,0.06,3.49-0.03,5.23c-0.02,0.3,0.46,0.3,0.47,0c0.09-1.74,0.09-3.48,0.04-5.22c0.66-0.15,1.13-0.69,1.53-1.22
		C86.68,46.76,87.23,45.99,86.98,45.45z"/>
	
		<linearGradient id="SVGID_1_" gradientUnits="userSpaceOnUse" x1="64.706" y1="17.9225" x2="50.6458" y2="-8.0209" gradientTransform="matrix(0.9999 0.0122 -0.0122 0.9999 -2.2437 2.5978)">
		<stop  offset="0" style="stop-color:#F3736B"/>
		<stop  offset="1" style="stop-color:#F8ADA7"/>
	</linearGradient>
	<path fill="url(#SVGID_1_)" d="M52.49,5.17c0.33,0.32,0.71,0.58,1.12,0.79c1.31,0.66,4.16,2.28,5.61,4.56l4.52,6.68l1.79,1.11
		c0,0,1.03,1.37,0.65,2.68c-0.38,1.31-3.71,2.81-4.8-0.97l-2.92-6.3c-0.29-0.64-0.7-1.21-1.22-1.7c-0.52-0.49-1.21-1.2-1.73-1.95
		c-0.53-0.76-1.68-1.94-2.48-2.73c-0.54-0.53-1.24-0.84-2-0.88l-0.1,0c-0.37-0.03-1.32-0.09-1.49-0.26c0,0-0.13-0.13-0.01-0.3
		c0.07-0.1,0.86-0.08,0.86-0.08l-1.89-1.58c0,0-0.15-0.09-0.1-0.29c0,0-0.06-0.39,0.32-0.39c0,0-0.04-0.35,0.41-0.21l0.39,0.13
		c0,0-0.04-0.35,0.25-0.28C49.91,3.26,51.47,4.21,52.49,5.17z"/>
	<linearGradient id="SVGID_2_" gradientUnits="userSpaceOnUse" x1="31.7801" y1="58.2628" x2="43.7538" y2="39.8488">
		<stop  offset="0" style="stop-color:#F3736B"/>
		<stop  offset="1" style="stop-color:#F8ADA7"/>
	</linearGradient>
	<path fill="url(#SVGID_2_)" d="M44.62,41.92c-1.13,0.06-3.56,0.39-5.07,2.16c-0.68,0.79-1.43,1.53-2.29,2.12l-4.55,3.11l-2.22,1.09
		c0,0-0.77,0.45-0.18,1.41c0.5,0.8,1.41,1.63,1.86,2.36c0.45,0.73,0.77,1.41,1.72,1.41c0.95,0,1.68,0,1.68,0s0.14-0.77-0.41-0.77
		c-0.73,0-0.77-0.32-0.77-0.32s-0.21-1.2-0.29-2.05c-0.03-0.3,0.12-0.58,0.37-0.74c1.57-1,7.48-4.67,11.84-5.76
		c-0.12-2.07-0.58-3.35-0.98-4.08C45.09,41.88,44.86,41.91,44.62,41.92z"/>
	<g>
		<defs>
			<path id="XMLID_6_" d="M81.28,39.77c0.16-0.98,0.57-4.75-2.48-5.12c-3.08-0.37-9.82-1.1-10.03-1.12
				c-1.81,3.32-4.28,5.83-5.57,7.02c0.04-0.02,0.08-0.03,0.12-0.05c2.72,0.27,8.8-0.52,12.39-1.3c0.7-0.15,1.37,0.36,1.39,1.08
				C78.28,40.31,79.85,40.23,81.28,39.77z"/>
		</defs>
		<linearGradient id="XMLID_2_" gradientUnits="userSpaceOnUse" x1="49.6097" y1="29.4749" x2="75.5526" y2="39.2715">
			<stop  offset="0" style="stop-color:#303085"/>
			<stop  offset="1" style="stop-color:#4565AF"/>
		</linearGradient>
		<use xlink:href="#XMLID_6_"  overflow="visible" fill="url(#XMLID_2_)"/>
		<clipPath id="XMLID_3_">
			<use xlink:href="#XMLID_6_"  overflow="visible"/>
		</clipPath>
		<path opacity="0.2" clip-path="url(#XMLID_3_)" fill="#4565AF" d="M81.29,27.28c-0.39-1.05-1.79-1.43-2.85-1.06
			c-1.06,0.37-1.84,1.27-2.5,2.17c-3.1,4.2-4.97,9.34-8.79,12.9c-0.8,0.74-1.68,1.41-2.71,1.77c-0.47,0.17-0.98,0.27-1.48,0.21
			c-1.25-0.14-2.22-1.26-2.53-2.47c-0.03-0.12-0.06-0.26-0.02-0.38c0.08-0.27,0.4-0.37,0.67-0.43c1.5-0.32,3.04-0.47,4.49-0.98
			c2.73-0.96,4.95-3.21,5.92-5.94c0.62-1.75,0.74-3.63,1.31-5.4c0.57-1.76,1.76-3.51,3.57-3.93c1.57-0.37,3.33,0.48,4.02,1.93"/>
		<path opacity="0.2" clip-path="url(#XMLID_3_)" fill="#4565AF" d="M71.97,39.69c0.54-1.73,1.63-3.24,2.87-4.57
			c1.23-1.33,2.62-2.51,3.88-3.81c0.95-0.98,1.85-2.06,2.24-3.36c0.4-1.3,0.25-2.7,0.09-4.06c-0.08-0.67-0.1-1.49,0.47-1.85
			c0.22-0.14,0.5-0.18,0.76-0.18c1.78-0.03,3.48,1.3,3.91,3.03c0.43,1.73-0.4,3.68-1.92,4.6c-1.31,0.8-2.96,0.86-4.31,1.59
			c-1.41,0.76-2.37,2.2-2.83,3.74c-0.46,1.54-0.47,3.17-0.36,4.77c0.08,1.1,0.21,2.19,0.18,3.29c-0.03,1.1-0.24,2.22-0.8,3.16
			c-0.83,1.4-2.95,2.6-4.45,1.39c-0.53-0.43-0.41-1.03-0.32-1.63c0.14-0.9,0.11-1.79,0.12-2.7C71.53,41.95,71.63,40.79,71.97,39.69z
			"/>
		<path opacity="0.2" clip-path="url(#XMLID_3_)" fill="#4565AF" d="M79.4,36.73c0.06-0.81,0.4-1.68,1.13-2.02
			c0.46-0.21,1-0.18,1.47,0c0.47,0.18,0.87,0.51,1.23,0.87c1.7,1.74,2.25,4.51,1.35,6.77c-0.36,0.9-0.94,1.73-1.74,2.28
			c-0.86,0.59-1.42,0.54-1.48-0.55c-0.09-1.66-1-3.16-1.53-4.71C79.54,38.52,79.33,37.64,79.4,36.73z"/>
	</g>
	<linearGradient id="SVGID_3_" gradientUnits="userSpaceOnUse" x1="81.1088" y1="61.4148" x2="81.1088" y2="36.8158">
		<stop  offset="0" style="stop-color:#F3736B"/>
		<stop  offset="1" style="stop-color:#F8ADA7"/>
	</linearGradient>
	<path fill="url(#SVGID_3_)" d="M84.92,54.7c-0.68-0.05-3.49-1.9-3.49-1.9l-0.18-12.79c0,0,0.02-0.09,0.04-0.23
		c-1.44,0.46-3,0.54-4.17,0.51c0,0.01,0,0.03,0,0.04c0,0-1.27,3.22-0.06,5.34c1.01,1.76,1.15,5.68,0.88,7.68
		c-0.27,2,0.32,1.95,0.32,1.95h7.44C85.69,55.29,85.6,54.75,84.92,54.7z"/>
	<linearGradient id="SVGID_4_" gradientUnits="userSpaceOnUse" x1="66.0951" y1="39.0096" x2="66.0951" y2="16.9">
		<stop  offset="0" style="stop-color:#FFD325"/>
		<stop  offset="1" style="stop-color:#FEEE68"/>
	</linearGradient>
	<path fill="url(#SVGID_4_)" d="M68.77,33.54c0,0,2.54-4.41,2.13-9.31c0,0,0.86-3.36-2.49-4.85l-3.63-2.04l-3.58,1.54
		c0,0-0.18,1.95,1.86,5.17c2.21,3.48,1.36,6.08-1.22,7.48c-0.03,0.02-0.06,0.03-0.09,0.05c0.73,1.3,2.38,3.86,4.44,4.76
		c0.23,0.1,0.46,0.15,0.69,0.16C67.54,35.6,68.19,34.61,68.77,33.54C68.78,33.54,68.77,33.54,68.77,33.54z"/>
	<g>
		<defs>
			<path id="XMLID_5_" d="M61.74,31.57c-2.53,1.35-3.87,1.17-4.76,4.08c0,0-2.72,1.61-4.87,3.17c-1.7,1.23-3.6,2.16-5.61,2.73
				l-0.42,0.12c-0.24,0.07-0.49,0.12-0.73,0.17c0.39,0.73,0.85,2.01,0.98,4.08c0.08-0.02,0.16-0.04,0.24-0.06
				c3.95-0.92,10.75-2.74,16.66-5.3c0.88-0.81,2.28-2.21,3.67-4.07c-0.23-0.01-0.46-0.06-0.69-0.16
				C64.12,35.43,62.47,32.87,61.74,31.57z"/>
		</defs>
		<linearGradient id="XMLID_4_" gradientUnits="userSpaceOnUse" x1="44.364" y1="47.8338" x2="63.0502" y2="35.3159">
			<stop  offset="0" style="stop-color:#4565AF"/>
			<stop  offset="1" style="stop-color:#6B91CB"/>
		</linearGradient>
		<use xlink:href="#XMLID_5_"  overflow="visible" fill="url(#XMLID_4_)"/>
		<clipPath id="XMLID_7_">
			<use xlink:href="#XMLID_5_"  overflow="visible"/>
		</clipPath>
		<path opacity="0.2" clip-path="url(#XMLID_7_)" fill="#4565AF" d="M73.8,48.82c1.36-0.57,1.78-2.43,1.24-3.8
			c-0.54-1.37-1.77-2.34-3-3.17c-5.7-3.83-12.57-6-17.46-10.83c-1.02-1-1.95-2.13-2.48-3.46c-0.25-0.61-0.41-1.27-0.37-1.93
			c0.11-1.65,1.52-2.99,3.1-3.46c0.16-0.05,0.33-0.09,0.5-0.05c0.36,0.09,0.51,0.5,0.61,0.86c0.51,1.95,0.8,3.97,1.55,5.85
			c1.42,3.53,4.51,6.33,8.14,7.45c2.33,0.72,4.82,0.77,7.17,1.42c2.35,0.65,4.72,2.12,5.37,4.47c0.57,2.04-0.45,4.41-2.31,5.4"/>
		<path opacity="0.2" clip-path="url(#XMLID_7_)" fill="#4565AF" d="M52.68,34.95c2.31,0.61,4.36,1.96,6.18,3.51
			c1.82,1.55,3.45,3.3,5.23,4.89c1.34,1.19,2.81,2.31,4.54,2.76c1.74,0.45,3.57,0.18,5.34-0.12c0.88-0.14,1.96-0.21,2.46,0.52
			c0.2,0.29,0.26,0.64,0.28,0.99c0.15,2.34-1.52,4.64-3.76,5.31c-2.24,0.67-4.86-0.31-6.16-2.26c-1.13-1.68-1.3-3.84-2.34-5.58
			c-1.08-1.81-3.03-2.99-5.08-3.51c-2.05-0.52-4.2-0.44-6.3-0.2c-1.44,0.16-2.87,0.4-4.32,0.42c-1.45,0.02-2.93-0.2-4.2-0.88
			c-1.89-1.01-3.58-3.73-2.08-5.77c0.53-0.72,1.33-0.6,2.12-0.51c1.2,0.14,2.35,0.04,3.55,0.01C49.68,34.49,51.21,34.56,52.68,34.95
			z"/>
		<path opacity="0.2" clip-path="url(#XMLID_7_)" fill="#4565AF" d="M53.55,42.42c1.07,0.03,2.23,0.43,2.72,1.38
			c0.31,0.59,0.3,1.31,0.09,1.94c-0.21,0.63-0.62,1.18-1.07,1.66c-2.2,2.33-5.8,3.21-8.82,2.15c-1.2-0.42-2.33-1.13-3.1-2.16
			c-0.82-1.1-0.79-1.83,0.64-1.97c2.18-0.21,4.11-1.49,6.1-2.28C51.21,42.72,52.36,42.39,53.55,42.42z"/>
	</g>
	<linearGradient id="SVGID_5_" gradientUnits="userSpaceOnUse" x1="57.6958" y1="23.9445" x2="61.1427" y2="16.4156">
		<stop  offset="0" style="stop-color:#F3736B"/>
		<stop  offset="1" style="stop-color:#F8ADA7"/>
	</linearGradient>
	<path fill="url(#SVGID_5_)" d="M59.52,13.22c0,0,2.75-0.84,4.61,1.14c0.2,0.21,0.22,0.53,0.07,0.77l-0.18,0.3v1.45L61.06,18
		C61.06,18,59.24,15.7,59.52,13.22z"/>
	<linearGradient id="SVGID_6_" gradientUnits="userSpaceOnUse" x1="62.8554" y1="12.495" x2="57.2768" y2="18.7993">
		<stop  offset="0" style="stop-color:#854E34"/>
		<stop  offset="1" style="stop-color:#A89C34"/>
	</linearGradient>
	<path fill="url(#SVGID_6_)" d="M59.52,13.22c0,0-1.94,0.64-1.51,3.02c0.33,1.87,1.6,2.39,3.05,1.75
		C61.06,18,61.15,14.55,59.52,13.22z"/>
	<linearGradient id="SVGID_7_" gradientUnits="userSpaceOnUse" x1="58.8846" y1="16.0631" x2="56.4126" y2="18.5351">
		<stop  offset="0" style="stop-color:#854E34"/>
		<stop  offset="1" style="stop-color:#A89C34"/>
	</linearGradient>
	<circle fill="url(#SVGID_7_)" cx="57.59" cy="17.36" r="1.03"/>
	<linearGradient id="SVGID_8_" gradientUnits="userSpaceOnUse" x1="73.3555" y1="31.7277" x2="56.9371" y2="11.046">
		<stop  offset="0" style="stop-color:#F3736B"/>
		<stop  offset="1" style="stop-color:#F8ADA7"/>
	</linearGradient>
	<path fill="url(#SVGID_8_)" d="M52.63,4.98c0.34,0.31,0.72,0.58,1.13,0.78c1.31,0.64,4.19,2.23,5.66,4.49l4.6,6.62l1.8,1.09
		c0,0,1.04,1.36,0.68,2.68c-0.36,1.32-3.67,2.86-4.81-0.91l-2.99-6.26c-0.3-0.63-0.72-1.21-1.24-1.68
		c-0.52-0.48-1.22-1.18-1.76-1.93c-0.54-0.75-1.71-1.92-2.52-2.7c-0.54-0.52-1.26-0.82-2.01-0.85l-0.1,0
		c-0.37-0.02-1.33-0.08-1.49-0.25c0,0-0.13-0.13-0.02-0.3c0.07-0.1,0.85-0.09,0.85-0.09l-1.91-1.56c0,0-0.15-0.09-0.1-0.29
		c0,0-0.06-0.39,0.32-0.39c0,0-0.05-0.35,0.41-0.21l0.39,0.12c0,0-0.05-0.35,0.24-0.29C50.03,3.11,51.6,4.03,52.63,4.98z"/>
</g>
</svg>
