<?xml version="1.0" encoding="utf-8"?>
<!-- Generator: Adobe Illustrator 24.1.1, SVG Export Plug-In . SVG Version: 6.00 Build 0)  -->
<svg version="1.1" id="Layer_1" xmlns="http://www.w3.org/2000/svg" xmlns:xlink="http://www.w3.org/1999/xlink" x="0px" y="0px"
	 viewBox="0 0 117.55 58" enable-background="new 0 0 117.55 58" xml:space="preserve">
<g>
	<g>
		<g>
			<g>
				<path fill="#F69320" d="M116.23,7.21c0,13.59-11.02,24.61-24.61,24.61c-13.59,0-24.61-11.02-24.61-24.61
					c0-13.59,11.02-24.61,24.61-24.61C105.21-17.4,116.23-6.38,116.23,7.21z"/>
				<g>
					<path fill="#FAAF3C" d="M135.74,13.54l-8.11-6.68l7.59-6.37c0.3-0.25,0.45-0.65,0.38-1.04c-0.07-0.39-0.34-0.71-0.71-0.85
						l-9.77-3.56l5.42-9.58c0.19-0.34,0.19-0.76-0.01-1.1c-0.2-0.34-0.57-0.55-0.96-0.55l-10.72,0.1l1.77-10.04
						c0.07-0.39-0.07-0.79-0.38-1.04c-0.3-0.25-0.72-0.33-1.09-0.19l-9.67,3.52l-1.95-10.51c-0.07-0.39-0.34-0.71-0.72-0.84
						c-0.37-0.13-0.79-0.05-1.09,0.2l-8.15,6.97l-5.26-9.1c-0.2-0.34-0.56-0.55-0.96-0.55c-0.4,0-0.76,0.21-0.96,0.55l-5.2,9.01
						l-8.03-6.62c-0.3-0.25-0.72-0.32-1.09-0.18c-0.37,0.14-0.64,0.46-0.7,0.85l-1.73,10.37l-10.07-3.67
						c-0.37-0.14-0.79-0.06-1.09,0.19c-0.3,0.25-0.45,0.65-0.38,1.04l1.86,10.52L53.67-15.5c-0.39,0-0.76,0.22-0.95,0.56
						c-0.2,0.34-0.19,0.77,0.01,1.11l5.17,8.78L47.83-1.39c-0.37,0.13-0.64,0.46-0.71,0.85c-0.07,0.39,0.08,0.79,0.38,1.04
						l8.43,7.07l-7.91,6.76c-0.3,0.26-0.44,0.65-0.37,1.04c0.07,0.39,0.35,0.71,0.72,0.84l9.34,3.3l-5.25,9.1
						c-0.2,0.34-0.2,0.76,0,1.11c0.2,0.34,0.56,0.55,0.96,0.55l11.22,0l-1.76,10.53c-0.07,0.39,0.08,0.79,0.39,1.03
						c0.3,0.25,0.72,0.32,1.09,0.18l9.17-3.43l1.77,10.03c0.07,0.39,0.34,0.71,0.71,0.85c0.37,0.14,0.79,0.06,1.09-0.19l8.59-7.21
						l5.59,9.48c0.2,0.34,0.57,0.55,0.96,0.54c0.4,0,0.76-0.22,0.95-0.56l4.87-8.62l7.59,6.36c0.3,0.25,0.72,0.33,1.09,0.19
						c0.37-0.13,0.64-0.46,0.71-0.85l1.91-10.84l10.57,3.74c0.37,0.13,0.79,0.06,1.09-0.2c0.3-0.26,0.44-0.65,0.37-1.04l-1.86-10.02
						l9.79,0c0.39,0,0.76-0.21,0.96-0.55c0.2-0.34,0.2-0.76,0-1.11l-5.34-9.25l10.5-3.93c0.37-0.14,0.64-0.46,0.7-0.85
						C136.19,14.19,136.04,13.8,135.74,13.54z M91.62,37C75.2,37,61.84,23.64,61.84,7.21c0-16.42,13.36-29.78,29.78-29.78
						c16.42,0,29.78,13.36,29.78,29.78C121.41,23.64,108.04,37,91.62,37z"/>
				</g>
			</g>
		</g>
	</g>
	<g>
		<path fill="#D37A35" d="M103.61,39.11c-0.28,0-0.55,0.02-0.81,0.05c-0.96-3.24-3.96-5.61-7.52-5.61c-3.23,0-6.01,1.96-7.21,4.76
			c-0.71-0.28-1.48-0.44-2.28-0.44c-2.49,0-4.63,1.47-5.61,3.59c-0.65-0.31-1.38-0.48-2.14-0.48c-2.15,0-3.99,1.35-4.71,3.24
			c-0.48-0.22-1.02-0.35-1.58-0.35c-2.1,0-3.8,1.7-3.8,3.8c0,2.1,1.7,3.8,3.8,3.8h31.87c3.42,0,6.19-2.77,6.19-6.19
			C109.8,41.88,107.03,39.11,103.61,39.11z"/>
		<path fill="#FFFFFF" d="M101.86,37.53c-0.28,0-0.55,0.02-0.81,0.05c-0.96-3.24-3.96-5.61-7.52-5.61c-3.23,0-6.01,1.96-7.21,4.76
			c-0.71-0.28-1.48-0.44-2.28-0.44c-2.49,0-4.63,1.47-5.61,3.59c-0.65-0.31-1.38-0.48-2.14-0.48c-2.15,0-3.99,1.35-4.71,3.24
			c-0.48-0.22-1.02-0.35-1.58-0.35c-2.1,0-3.8,1.7-3.8,3.8c0,2.1,1.7,3.8,3.8,3.8h31.87c3.42,0,6.19-2.77,6.19-6.19
			C108.05,40.3,105.28,37.53,101.86,37.53z"/>
	</g>
	<g>
		<path fill="#D37A35" d="M51.94,14.25c0-0.07,0.01-0.15,0.01-0.22c0-2.02-1.64-3.66-3.66-3.66c-0.38,0-0.75,0.06-1.1,0.17
			c0-0.01,0-0.03,0-0.04c0-2.5-2.03-4.53-4.53-4.53c-1.99,0-3.69,1.29-4.29,3.08c-0.53-0.32-1.14-0.5-1.8-0.5
			c-1.94,0-3.51,1.57-3.51,3.51c0,0.22,0.02,0.44,0.06,0.65c-1.7,0.25-3,1.71-3,3.47c0,1.94,1.57,3.51,3.51,3.51h17.42
			c1.54,0,2.79-1.25,2.79-2.79C53.84,15.67,53.04,14.63,51.94,14.25z"/>
		<path fill="#FFFFFF" d="M50.86,13.28c0-0.07,0.01-0.15,0.01-0.22c0-2.02-1.64-3.66-3.66-3.66c-0.38,0-0.75,0.06-1.1,0.17
			c0-0.01,0-0.03,0-0.04c0-2.5-2.03-4.53-4.53-4.53c-1.99,0-3.69,1.29-4.29,3.08c-0.53-0.32-1.14-0.5-1.8-0.5
			c-1.94,0-3.51,1.57-3.51,3.51c0,0.22,0.02,0.44,0.06,0.65c-1.7,0.25-3,1.71-3,3.47c0,1.94,1.57,3.51,3.51,3.51h17.42
			c1.54,0,2.79-1.25,2.79-2.79C52.76,14.69,51.96,13.65,50.86,13.28z"/>
	</g>
	<g>
		<path fill="#D37A35" d="M33.58,36.55c0-0.1,0.01-0.21,0.01-0.31v-0.08l-0.06,0.01c-0.58-3.34-3.49-5.88-6.99-5.88
			c-0.49,0-0.96,0.05-1.42,0.14c-1.53-2.31-4.15-3.83-7.13-3.83c-4.49,0-8.17,3.46-8.52,7.86c-0.78-0.44-1.67-0.69-2.63-0.69
			c-2.96,0-5.36,2.4-5.36,5.36v0.05c0,2.93,2.38,5.31,5.31,5.31h18.57c0.2,0,0.41-0.01,0.61-0.02c0.19,0.02,0.38,0.02,0.58,0.02
			c3.92,0,7.1-3.18,7.1-7.1C33.63,37.1,33.61,36.82,33.58,36.55z"/>
		<path fill="#FFFFFF" d="M32.11,35.23c0-0.1,0.01-0.21,0.01-0.31v-0.08l-0.06,0.01c-0.58-3.34-3.49-5.88-6.99-5.88
			c-0.49,0-0.96,0.05-1.42,0.14c-1.53-2.31-4.15-3.83-7.13-3.83c-4.49,0-8.17,3.46-8.52,7.86c-0.78-0.44-1.67-0.69-2.63-0.69
			C2.4,32.44,0,34.84,0,37.8v0.05c0,2.93,2.38,5.31,5.31,5.31h18.57c0.2,0,0.41-0.01,0.61-0.02c0.19,0.02,0.38,0.02,0.58,0.02
			c3.92,0,7.1-3.18,7.1-7.1C32.16,35.78,32.14,35.5,32.11,35.23z"/>
	</g>
	<g>
		<path fill="#D37A35" d="M108.03,5.66c0-0.05,0-0.09,0-0.14V5.48l-0.03,0c-0.26-1.52-1.59-2.68-3.19-2.68
			c-0.22,0-0.44,0.02-0.65,0.06c-0.7-1.05-1.89-1.75-3.25-1.75c-2.04,0-3.72,1.58-3.88,3.58c-0.35-0.2-0.76-0.31-1.2-0.31
			c-1.35,0-2.44,1.09-2.44,2.44v0.02c0,1.34,1.08,2.42,2.42,2.42h8.46c0.09,0,0.18,0,0.28-0.01c0.09,0.01,0.17,0.01,0.26,0.01
			c1.79,0,3.23-1.45,3.23-3.23C108.06,5.91,108.05,5.79,108.03,5.66z"/>
		<path fill="#FFFFFF" d="M106.61,4.54c0-0.05,0-0.09,0-0.14V4.36l-0.03,0c-0.26-1.52-1.59-2.68-3.19-2.68
			c-0.22,0-0.44,0.02-0.65,0.06C102.05,0.69,100.86,0,99.5,0c-2.04,0-3.72,1.58-3.88,3.58c-0.35-0.2-0.76-0.31-1.2-0.31
			c-1.35,0-2.44,1.09-2.44,2.44v0.02c0,1.34,1.08,2.42,2.42,2.42h8.46c0.09,0,0.18,0,0.28-0.01c0.09,0.01,0.17,0.01,0.26,0.01
			c1.79,0,3.23-1.45,3.23-3.23C106.63,4.79,106.62,4.66,106.61,4.54z"/>
	</g>
</g>
</svg>
