<?xml version="1.0" encoding="utf-8"?>
<!-- Generator: Adobe Illustrator 24.1.1, SVG Export Plug-In . SVG Version: 6.00 Build 0)  -->
<svg version="1.1" id="Layer_1" xmlns="http://www.w3.org/2000/svg" xmlns:xlink="http://www.w3.org/1999/xlink" x="0px" y="0px"
	 viewBox="0 0 102.32 58" enable-background="new 0 0 102.32 58" xml:space="preserve">
<g>
	<g>
		<path fill="#EF4037" d="M40.57,38.48l2.5,7.93C32.75,34.5,23.8,39.4,23.8,39.4c10.66,10.95,19.52,7.77,19.52,7.77
			s0.43,1.19,0.91,2.65l1.22-0.68c-0.28-0.71-0.6-1.49-0.98-2.34c0,0,11.27-6.97,10.12-15.23c0,0-8.36,3.36-10.66,14.52l-2.43-7.9
			c0,0,11.74-6.88,13.54-17.39c0,0-10.33,0.52-14,16.15l-2.16-6.65c0,0,7.26-6.04,7.23-16.35c0,0-6.44,2.63-7.72,15.4l-2.07-7.37
			c0,0,4.74-3.81,6.25-13.07c0,0-5.55,2.68-6.66,11.85c0.21-1.93,0.18-11.44-4.89-18.82c-1.22,5.03,2.51,13.91,3.93,17.77
			c-2.51-4.95-7.33-8.33-7.33-8.33c2.59,6.35,7.84,10.84,7.84,10.84l2.13,6.75c-4.54-9.63-15.62-11.7-15.62-11.7
			c4.71,8.8,15.99,12.87,15.99,12.87l1.91,6.06c-10.23-11.03-18.5-9.74-18.5-9.74C24.99,38.01,40.57,38.48,40.57,38.48z"/>
		<path fill="#EF4037" d="M22.88,18.18c0,0,10.28,8.68,14.66,11.35C37.54,29.53,27.33,20.95,22.88,18.18z"/>
		<path fill="#EF4037" d="M28.29,12.28c0,0,4.31,6.62,7.02,8.97C35.31,21.26,31.73,16.57,28.29,12.28z"/>
		<path fill="#EF4037" d="M42.18,9.49c0,0-5.04,7.74-6.15,11.98C36.03,21.47,41.22,11.14,42.18,9.49z"/>
		<path fill="#EF4037" d="M45.71,14.63c0,0-6,10.36-7.04,15.22C38.67,29.85,45.4,15.28,45.71,14.63z"/>
		<path fill="#EF4037" d="M54.31,21.5c0,0-9.85,9.05-13.17,16.16C41.13,37.67,49.72,26.21,54.31,21.5z"/>
		<path fill="#EF4037" d="M22.06,26.99c0,0,10.71,9.65,18.42,10.69C40.49,37.68,31.48,34.71,22.06,26.99z"/>
		<path fill="#EF4037" d="M44.35,46.34c0,0,5.91-10.04,9.72-13.56C54.08,32.79,45.3,45.25,44.35,46.34z"/>
		<path fill="#EF4037" d="M24.4,39.62c0,0,12.37,6.56,18.78,7.23C43.18,46.85,24.95,40.27,24.4,39.62z"/>
		<path fill="#EF4037" d="M31.26,3.4c0,0,2.91,12.36,4.15,15.58C35.41,18.98,33.52,9.77,31.26,3.4z"/>
	</g>
	<g>
		<path fill="#EF4037" d="M72.32,35.71l-2.47,7.53c-1.38-14.95-11.02-16.13-11.02-16.13C61,41.49,69.62,43.95,69.62,43.95
			s-0.33,1.16-0.77,2.56l1.32,0.15c0.18-0.7,0.36-1.48,0.54-2.35c0,0,12.58,0.86,16.28-6.17c0,0-8.33-2.04-16.3,5.31L73.19,36
			c0,0,12.9,1.19,20.13-5.94c0,0-8.28-5.33-19.79,4.72l2.02-6.34c0,0,8.97-0.64,14.67-8.64c0,0-6.44-1.54-14.52,7.62l2.49-6.85
			c0,0,5.78-0.31,12.08-6.64c0,0-5.78-1.01-11.73,5.47c1.23-1.37,6.49-8.74,6.66-17.27c-3.74,3.21-5.78,12.15-6.83,15.93
			c0.8-5.22-1.05-10.51-1.05-10.51c-1.52,6.35,0.05,12.74,0.05,12.74l-2.1,6.4c1.83-9.97-5.59-17.72-5.59-17.72
			c-1.24,9.42,5.22,18.83,5.22,18.83l-1.89,5.75c-1.79-14.21-8.91-17.8-8.91-17.8C60.53,26.7,72.32,35.71,72.32,35.71z"/>
		<path fill="#EF4037" d="M69.89,10.19c0,0,3.13,12.42,5.04,16.92C74.94,27.1,71.8,14.8,69.89,10.19z"/>
		<path fill="#EF4037" d="M77.35,8.63c0,0-0.34,7.51,0.45,10.84C77.8,19.47,77.64,13.86,77.35,8.63z"/>
		<path fill="#EF4037" d="M89.65,14.18c0,0-8.19,3.19-11.4,5.86C78.24,20.03,87.99,14.93,89.65,14.18z"/>
		<path fill="#EF4037" d="M89.53,20.11c0,0-10.4,4.68-13.89,7.86C75.64,27.98,88.93,20.44,89.53,20.11z"/>
		<path fill="#EF4037" d="M92.36,30.2c0,0-12.64,1.53-19.16,5.19C73.2,35.39,86.21,31.29,92.36,30.2z"/>
		<path fill="#EF4037" d="M64.37,16.55c0,0,2.93,13.4,8.32,18.49C72.69,35.05,67.38,27.74,64.37,16.55z"/>
		<path fill="#EF4037" d="M70.88,43.89c0,0,10.14-4.48,15.05-5.09C85.93,38.8,72.22,43.57,70.88,43.89z"/>
		<path fill="#EF4037" d="M59.17,27.62c0,0,5.93,11.94,10.51,16.01C69.69,43.63,59.24,28.43,59.17,27.62z"/>
		<path fill="#EF4037" d="M84.58,3.4c0,0-4.61,11.18-5.44,14.35C79.15,17.76,82.8,9.59,84.58,3.4z"/>
	</g>
	<g>
		<path fill="#EF4037" d="M80.86,48.11l-4.55,1.32c6.91-5.73,4.24-10.89,4.24-10.89c-6.37,5.93-4.67,11.01-4.67,11.01
			s-0.68,0.23-1.52,0.48l0.37,0.7c0.41-0.15,0.85-0.32,1.34-0.53c0,0,3.83,6.5,8.55,5.95c0,0-1.81-4.8-8.13-6.25l4.52-1.28
			c0,0,3.77,6.77,9.73,7.93c0,0-0.16-5.89-9.02-8.17l3.81-1.15c0,0,3.35,4.21,9.22,4.32c0,0-1.42-3.7-8.67-4.59l4.22-1.09
			c0,0,2.11,2.75,7.36,3.72c0,0-1.46-3.19-6.66-3.94c1.09,0.14,6.51,0.25,10.77-2.55c-2.85-0.76-7.95,1.25-10.17,2.01
			c2.85-1.37,4.83-4.07,4.83-4.07c-3.65,1.4-6.27,4.33-6.27,4.33l-3.87,1.13c5.54-2.46,6.85-8.74,6.85-8.74
			c-5.07,2.57-7.53,8.94-7.53,8.94l-3.47,1.01c6.41-5.68,5.78-10.41,5.78-10.41C81.32,39.25,80.86,48.11,80.86,48.11z"/>
		<path fill="#EF4037" d="M92.63,38.29c0,0-5.07,5.74-6.64,8.2C85.99,46.49,91,40.79,92.63,38.29z"/>
		<path fill="#EF4037" d="M95.92,41.44c0,0-3.82,2.37-5.2,3.89C90.73,45.33,93.44,43.35,95.92,41.44z"/>
		<path fill="#EF4037" d="M97.34,49.39c0,0-4.34-2.97-6.74-3.65C90.6,45.74,96.41,48.82,97.34,49.39z"/>
		<path fill="#EF4037" d="M94.37,51.33c0,0-5.82-3.55-8.58-4.2C85.79,47.14,94.01,51.15,94.37,51.33z"/>
		<path fill="#EF4037" d="M90.35,56.14c0,0-5.03-5.72-9.04-7.7C81.31,48.44,87.73,53.47,90.35,56.14z"/>
		<path fill="#EF4037" d="M87.63,37.72c0,0-5.62,5.98-6.32,10.35C81.31,48.07,83.12,42.98,87.63,37.72z"/>
		<path fill="#EF4037" d="M76.33,50.17c0,0,5.64,3.49,7.6,5.7C83.93,55.87,76.95,50.72,76.33,50.17z"/>
		<path fill="#EF4037" d="M80.41,38.89c0,0-3.89,6.96-4.35,10.6C76.06,49.49,80.03,39.2,80.41,38.89z"/>
		<path fill="#EF4037" d="M100.94,43.25c0,0-7.07,1.5-8.92,2.17C92.02,45.41,97.29,44.46,100.94,43.25z"/>
	</g>
	<g>
		<g>
			<defs>
				<path id="XMLID_10_" d="M44.18,47.86l12.08-10.14H44.73C42.62,45.58,44.18,47.86,44.18,47.86z"/>
			</defs>
			<linearGradient id="XMLID_2_" gradientUnits="userSpaceOnUse" x1="59.8505" y1="46.9851" x2="48.5929" y2="42.0748">
				<stop  offset="0" style="stop-color:#A41D21"/>
				<stop  offset="1" style="stop-color:#ED1C24"/>
			</linearGradient>
			<use xlink:href="#XMLID_10_"  overflow="visible" fill="url(#XMLID_2_)"/>
			<clipPath id="XMLID_3_">
				<use xlink:href="#XMLID_10_"  overflow="visible"/>
			</clipPath>
			<circle opacity="0.2" clip-path="url(#XMLID_3_)" fill="#A89C34" cx="56.71" cy="42.72" r="0.97"/>
			<path opacity="0.2" clip-path="url(#XMLID_3_)" fill="#A89C34" d="M49.33,37.69c0,0.53-0.43,0.97-0.97,0.97s-0.97-0.43-0.97-0.97
				c0-0.53,0.43-0.97,0.97-0.97S49.33,37.15,49.33,37.69z"/>
			<path opacity="0.2" clip-path="url(#XMLID_3_)" fill="#A89C34" d="M48.82,44.12c0,0.53-0.43,0.97-0.97,0.97
				c-0.53,0-0.97-0.43-0.97-0.97s0.43-0.97,0.97-0.97C48.38,43.15,48.82,43.59,48.82,44.12z"/>
			<path opacity="0.2" clip-path="url(#XMLID_3_)" fill="#A89C34" d="M55.07,39.23c0,1.51-1.22,2.73-2.73,2.73
				c-1.51,0-2.73-1.22-2.73-2.73s1.22-2.73,2.73-2.73C53.85,36.5,55.07,37.72,55.07,39.23z"/>
			<path opacity="0.2" clip-path="url(#XMLID_3_)" fill="#A89C34" d="M55.76,46.13c0,1.51-1.22,2.73-2.73,2.73
				c-1.51,0-2.73-1.22-2.73-2.73c0-1.51,1.22-2.73,2.73-2.73C54.54,43.39,55.76,44.62,55.76,46.13z"/>
			<path opacity="0.2" clip-path="url(#XMLID_3_)" fill="#A89C34" d="M47.35,40.62c0,1.51-1.22,2.73-2.73,2.73
				c-1.51,0-2.73-1.22-2.73-2.73c0-1.51,1.22-2.73,2.73-2.73C46.13,37.88,47.35,39.11,47.35,40.62z"/>
		</g>
		<linearGradient id="SVGID_1_" gradientUnits="userSpaceOnUse" x1="44.8813" y1="23.2778" x2="65.8636" y2="23.2778">
			<stop  offset="0" style="stop-color:#4A5D6B"/>
			<stop  offset="1" style="stop-color:#547699"/>
		</linearGradient>
		<path fill="url(#SVGID_1_)" d="M61.98,32.92l0.47-0.4v-2.9c0-1.32,0.46-2.6,1.31-3.61c0.99-1.17,2.16-2.69,2.1-3.25
			c-0.95,0.25-3.57,0.11-3.71-9.12h-1.71c-0.29,8.69-5.66,8.29-5.66,8.29s-5.37,0.39-5.66-8.29h-0.87
			c-0.11,8.46-2.11,10.61-3.37,11.11c0.79,2.36,1.61,4.01,1,8.01C48.99,32.5,55.63,32.13,61.98,32.92z"/>
		<linearGradient id="SVGID_2_" gradientUnits="userSpaceOnUse" x1="66.7583" y1="35.0789" x2="45.8243" y2="35.0789">
			<stop  offset="0" style="stop-color:#F3736B"/>
			<stop  offset="1" style="stop-color:#F8ADA7"/>
		</linearGradient>
		<path fill="url(#SVGID_2_)" d="M45.88,32.75c-0.18,1.2-0.5,2.61-0.98,4.32c-0.06,0.22-0.12,0.43-0.18,0.64h11.54l5.71-4.79
			C55.63,32.13,48.99,32.5,45.88,32.75z"/>
		<linearGradient id="SVGID_3_" gradientUnits="userSpaceOnUse" x1="54.7821" y1="7.622" x2="54.7821" y2="19.6796">
			<stop  offset="0" style="stop-color:#F3736B"/>
			<stop  offset="1" style="stop-color:#F8ADA7"/>
		</linearGradient>
		<path fill="url(#SVGID_3_)" d="M56.7,13.63V8.41h-3.87v5.22h-3.71c0.29,8.69,5.66,8.29,5.66,8.29s5.37,0.39,5.66-8.29H56.7z"/>
		<g>
			<linearGradient id="SVGID_4_" gradientUnits="userSpaceOnUse" x1="54.8672" y1="-10.9471" x2="54.8672" y2="11.1154">
				<stop  offset="0" style="stop-color:#F3736B"/>
				<stop  offset="1" style="stop-color:#F8ADA7"/>
			</linearGradient>
			<path fill="url(#SVGID_4_)" d="M51.86,4.3c0,0-1.04,3.82,1.12,6.06c0,0,2.54,1.64,3.86-1.74c0,0,1.64-0.67,1.23-2.31
				c-0.33-1.32-1.33-0.3-1.34,0.3V3.1l-4.44-0.08L51.86,4.3z"/>
			<linearGradient id="SVGID_5_" gradientUnits="userSpaceOnUse" x1="54.7964" y1="16.6217" x2="54.7964" y2="-4.2672">
				<stop  offset="0" style="stop-color:#854E34"/>
				<stop  offset="1" style="stop-color:#A89C34"/>
			</linearGradient>
			<path fill="url(#SVGID_5_)" d="M52.22,2.16l2.27-0.61c0.64-0.26,2.53-0.47,3.13,0.82c1.09,2.35,3.26,3.08,1.89,6.68
				c-0.93,2.42,1.25,3.3,0.94,4.59c-0.36,1.53-2.85,1.5-3.69,0.81c-1.31-1.08-0.06-3.27-0.06-6.05c0,0,1.64-0.46,1.33-2.03
				c-0.12-0.59-1.01-0.6-1.19-0.02c-0.03,0.11-0.06,0.24-0.08,0.39c0,0-0.85-0.33-0.85-1.26s-0.33-2.19-2.34-2.19
				c0,0-1.45-0.22-1.74,1.17c0,0-1.09,4.32,1.62,6.15v2.32c0,1.62-1.17,0.4-1.81,0.89c-1,0.76-2.51,0.58-2.52-0.18
				c-0.03-1.33,1.07-1.33,1.07-1.33s-0.47-0.9,0.21-1.77c0.01-0.01,0.02-0.02,0.03-0.03c0.65-0.85,0.73-2.02,0.24-2.97
				C50.12,6.49,49.35,4.44,50.73,3C51.13,2.58,51.66,2.31,52.22,2.16z"/>
		</g>
		<g>
			<defs>
				<path id="XMLID_9_" d="M73.7,33.64c0,0-3.34-5.09-6.87-3.91c-6.95,2.32-22.65,18.12-22.65,18.12s0.07,0.12,0.16,0.33
					c2.29,5.3,6.54,6.14,11.28,6.14h3.47c3.75-2.55,9.98-15.89,9.98-15.89s-0.64,2.95,6.23,7.27l6,4.37
					c1.23,0.01,2.83-0.13,4.24-0.72L73.7,33.64z"/>
			</defs>
			<linearGradient id="XMLID_4_" gradientUnits="userSpaceOnUse" x1="64.8639" y1="55.0417" x2="64.8639" y2="27.6205">
				<stop  offset="0" style="stop-color:#E2432D"/>
				<stop  offset="1" style="stop-color:#F15C3F"/>
			</linearGradient>
			<use xlink:href="#XMLID_9_"  overflow="visible" fill="url(#XMLID_4_)"/>
			<clipPath id="XMLID_5_">
				<use xlink:href="#XMLID_9_"  overflow="visible"/>
			</clipPath>
			<path clip-path="url(#XMLID_5_)" fill="#FFC40D" d="M54.14,49.53c-0.39,1.46-1.89,2.32-3.35,1.93c-1.46-0.39-2.32-1.89-1.93-3.35
				c0.39-1.46,1.89-2.32,3.35-1.93C53.67,46.58,54.53,48.07,54.14,49.53z"/>
			<path clip-path="url(#XMLID_5_)" fill="#FFC40D" d="M47.2,47.92c-0.39,1.46-1.89,2.32-3.35,1.93c-1.46-0.39-2.32-1.89-1.93-3.35
				s1.89-2.32,3.35-1.93C46.73,44.97,47.59,46.47,47.2,47.92z"/>
			<path clip-path="url(#XMLID_5_)" fill="#FFC40D" d="M64.63,47.47c-0.39,1.46-1.89,2.32-3.35,1.93c-1.46-0.39-2.32-1.89-1.93-3.35
				c0.39-1.46,1.89-2.32,3.35-1.93C64.15,44.51,65.02,46.01,64.63,47.47z"/>
			<path clip-path="url(#XMLID_5_)" fill="#FFC40D" d="M76.12,32.3c-0.39,1.46-1.89,2.32-3.35,1.93c-1.46-0.39-2.32-1.89-1.93-3.35
				s1.89-2.32,3.35-1.93C75.65,29.34,76.51,30.84,76.12,32.3z"/>
			<path clip-path="url(#XMLID_5_)" fill="#FFC40D" d="M60.57,42.26c-0.18,0.68-0.88,1.08-1.55,0.9c-0.68-0.18-1.08-0.88-0.9-1.55
				c0.18-0.68,0.88-1.08,1.55-0.9C60.35,40.88,60.75,41.58,60.57,42.26z"/>
			<path clip-path="url(#XMLID_5_)" fill="#FFC40D" d="M82.35,43.95c-0.18,0.68-0.88,1.08-1.55,0.9c-0.68-0.18-1.08-0.88-0.9-1.55
				c0.18-0.68,0.88-1.08,1.55-0.9C82.13,42.58,82.54,43.28,82.35,43.95z"/>
			<path clip-path="url(#XMLID_5_)" fill="#FFC40D" d="M56.62,40.28c-0.39,1.46-1.89,2.32-3.35,1.93c-1.46-0.39-2.32-1.89-1.93-3.35
				c0.39-1.46,1.89-2.32,3.35-1.93C56.14,37.32,57.01,38.82,56.62,40.28z"/>
			<path clip-path="url(#XMLID_5_)" fill="#FFC40D" d="M58.3,49.35c-0.14,0.52-0.67,0.82-1.18,0.68c-0.52-0.14-0.82-0.67-0.68-1.18
				c0.14-0.52,0.67-0.82,1.18-0.68C58.13,48.31,58.44,48.84,58.3,49.35z"/>
			<path clip-path="url(#XMLID_5_)" fill="#FFC40D" d="M54.59,44.78c-0.14,0.52-0.67,0.82-1.18,0.68c-0.52-0.14-0.82-0.67-0.68-1.18
				c0.14-0.52,0.67-0.82,1.18-0.68C54.42,43.74,54.72,44.27,54.59,44.78z"/>
			<path clip-path="url(#XMLID_5_)" fill="#FFC40D" d="M59.47,36.06c-0.14,0.52-0.67,0.82-1.18,0.68c-0.52-0.14-0.82-0.67-0.68-1.18
				c0.14-0.52,0.67-0.82,1.18-0.68C59.31,35.02,59.61,35.55,59.47,36.06z"/>
			<path clip-path="url(#XMLID_5_)" fill="#FFC40D" d="M69.97,36.71c-0.14,0.52-0.67,0.82-1.18,0.68c-0.52-0.14-0.82-0.67-0.68-1.18
				c0.14-0.52,0.67-0.82,1.18-0.68C69.8,35.67,70.11,36.2,69.97,36.71z"/>
			<path clip-path="url(#XMLID_5_)" fill="#FFC40D" d="M72.56,42.92c-0.14,0.52-0.67,0.82-1.18,0.68c-0.52-0.14-0.82-0.67-0.68-1.18
				c0.14-0.52,0.67-0.82,1.18-0.68C72.39,41.87,72.7,42.4,72.56,42.92z"/>
			<path clip-path="url(#XMLID_5_)" fill="#FFC40D" d="M66.26,35.04c-0.39,1.46-1.89,2.32-3.35,1.93c-1.46-0.39-2.32-1.89-1.93-3.35
				c0.39-1.46,1.89-2.32,3.35-1.93C65.78,32.09,66.65,33.59,66.26,35.04z"/>
			
				<ellipse transform="matrix(0.556 -0.8312 0.8312 0.556 -4.5127 73.6715)" clip-path="url(#XMLID_5_)" fill="#FFC40D" cx="66.71" cy="41.06" rx="2.73" ry="2.73"/>
			<path clip-path="url(#XMLID_5_)" fill="#FFC40D" d="M77.72,40.33c-0.39,1.46-1.89,2.32-3.35,1.93c-1.46-0.39-2.32-1.89-1.93-3.35
				c0.39-1.46,1.89-2.32,3.35-1.93C77.24,37.38,78.11,38.88,77.72,40.33z"/>
			<path clip-path="url(#XMLID_5_)" fill="#FFC40D" d="M79.79,47.28c-0.39,1.46-1.89,2.32-3.35,1.93c-1.46-0.39-2.32-1.89-1.93-3.35
				c0.39-1.46,1.89-2.32,3.35-1.93C79.32,44.32,80.18,45.82,79.79,47.28z"/>
		</g>
		<linearGradient id="SVGID_6_" gradientUnits="userSpaceOnUse" x1="87.7224" y1="59.3195" x2="87.7224" y2="49.0227">
			<stop  offset="0" style="stop-color:#F3736B"/>
			<stop  offset="1" style="stop-color:#F8ADA7"/>
		</linearGradient>
		<path fill="url(#SVGID_6_)" d="M92.79,53.01c-0.94-0.23-2.48-0.61-3.62-0.93c-0.45-0.12-2.23-0.63-2.52-0.99l-1.09-1.73
			c-1.41,0.59-3.01,1-4.24,1l1,0.73c0.42,0.31,0.67,0.8,0.67,1.32v0.18c0,0.94,0.76,1.71,1.71,1.71h9.47
			C94.14,54.28,94.06,53.33,92.79,53.01z"/>
		<linearGradient id="SVGID_7_" gradientUnits="userSpaceOnUse" x1="45.2126" y1="38.1553" x2="45.2126" y2="17.9151">
			<stop  offset="0" style="stop-color:#F3736B"/>
			<stop  offset="1" style="stop-color:#F8ADA7"/>
		</linearGradient>
		<path fill="url(#SVGID_7_)" d="M54.12,20.94c-0.02,0.33-0.07,1.57-0.1,2.32c-0.01,0.37-0.11,0.74-0.27,1.07
			c-0.3,0.61-0.8,1.68-1.03,2.59c-0.13,0.51-0.58,0.87-1.1,0.87l-3.64,0c-0.89,0-1.77-0.19-2.6-0.55c-0.88-0.38-2.27-0.84-4.04-0.92
			l2.75-4.67c0.21,1.23,0.49,2.21,0.79,3.09c1.25-0.5,3.25-2.65,3.37-11.11h-3.76c0,0-2.37,0.15-3.26,4.07
			c-0.77,3.36-3.92,7.37-3.92,7.37s-3.35,4.4-0.24,5.48c3.11,1.08,16.29-1.38,16.29-1.38c0.74,0,1.35-0.6,1.35-1.35v-7.19
			C54.69,20.64,54.15,20.46,54.12,20.94z"/>
		<linearGradient id="SVGID_8_" gradientUnits="userSpaceOnUse" x1="63.0995" y1="38.1553" x2="63.0995" y2="17.9151">
			<stop  offset="0" style="stop-color:#F3736B"/>
			<stop  offset="1" style="stop-color:#F8ADA7"/>
		</linearGradient>
		<path fill="url(#SVGID_8_)" d="M70.53,22.17c0-8.44-5.75-8.53-5.75-8.53h-2.63c0.14,9.24,2.76,9.38,3.71,9.12
			c-0.01-0.14,1.02,1.03,1.02,1.03l0.66,5.15c-2.22-0.12-4.26,0.42-5.21,0.3c-3.29-0.42-5.53-1.8-5.66-2.31
			c-0.23-0.91-0.73-1.99-1.03-2.59c-0.17-0.33-0.26-0.7-0.27-1.07c-0.03-0.75-0.08-1.99-0.1-2.32c-0.03-0.48-0.57-0.3-0.57-0.3v7.19
			c0,0.74,0.6,1.35,1.35,1.35c0,0,11.54,6.18,14.37,4.49C72.93,32.17,70.29,25.64,70.53,22.17z"/>
		<g>
			<defs>
				<path id="XMLID_11_" d="M84,48.73c-4.55-6.23-18.08-4.39-18.08-4.39l-4.14,6.85l16.71-0.7L84,48.73z"/>
			</defs>
			<linearGradient id="XMLID_6_" gradientUnits="userSpaceOnUse" x1="56.818" y1="47.6418" x2="70.9505" y2="47.6418">
				<stop  offset="0" style="stop-color:#A41D21"/>
				<stop  offset="1" style="stop-color:#ED1C24"/>
			</linearGradient>
			<use xlink:href="#XMLID_11_"  overflow="visible" fill="url(#XMLID_6_)"/>
			<clipPath id="XMLID_7_">
				<use xlink:href="#XMLID_11_"  overflow="visible"/>
			</clipPath>
			<g opacity="0.2" clip-path="url(#XMLID_7_)">
				<path fill="#A89C34" d="M62.54,53.92c-1,1.13-2.72,1.24-3.86,0.25c-1.13-1-1.24-2.72-0.25-3.86c1-1.13,2.72-1.24,3.86-0.25
					C63.42,51.06,63.54,52.79,62.54,53.92z"/>
				<path fill="#A89C34" d="M72.85,56.73c-1,1.13-2.72,1.24-3.86,0.25c-1.13-1-1.24-2.72-0.25-3.86c1-1.13,2.72-1.24,3.86-0.25
					C73.73,53.86,73.84,55.59,72.85,56.73z"/>
				<path fill="#A89C34" d="M71.53,50.25c-0.46,0.53-1.26,0.58-1.79,0.11c-0.53-0.46-0.58-1.26-0.11-1.79
					c0.46-0.53,1.26-0.58,1.79-0.11C71.94,48.93,71.99,49.73,71.53,50.25z"/>
				<path fill="#A89C34" d="M68.86,46.73c-1,1.13-2.72,1.24-3.86,0.25c-1.13-1-1.24-2.72-0.25-3.86c1-1.13,2.72-1.24,3.86-0.25
					C69.75,43.87,69.86,45.6,68.86,46.73z"/>
				<path fill="#A89C34" d="M66.34,55.6c-0.35,0.4-0.96,0.44-1.36,0.09c-0.4-0.35-0.44-0.96-0.09-1.36c0.35-0.4,0.96-0.44,1.36-0.09
					C66.65,54.59,66.69,55.2,66.34,55.6z"/>
				<path fill="#A89C34" d="M65.04,49.86c-0.35,0.4-0.96,0.44-1.36,0.09c-0.4-0.35-0.44-0.96-0.09-1.36
					c0.35-0.4,0.96-0.44,1.36-0.09C65.36,48.85,65.4,49.46,65.04,49.86z"/>
				<path fill="#A89C34" d="M73.29,44.22c-0.35,0.4-0.96,0.44-1.36,0.09c-0.4-0.35-0.44-0.96-0.09-1.36
					c0.35-0.4,0.96-0.44,1.36-0.09C73.61,43.21,73.65,43.82,73.29,44.22z"/>
				<path fill="#A89C34" d="M82.41,49.46c-0.35,0.4-0.96,0.44-1.36,0.09c-0.4-0.35-0.44-0.96-0.09-1.36
					c0.35-0.4,0.96-0.44,1.36-0.09C82.72,48.45,82.76,49.06,82.41,49.46z"/>
				<path fill="#A89C34" d="M79.83,46.32c-1,1.13-2.72,1.24-3.86,0.25s-1.24-2.72-0.25-3.86c1-1.13,2.72-1.24,3.86-0.25
					C80.71,43.46,80.82,45.18,79.83,46.32z"/>
				<path fill="#A89C34" d="M80.29,53.78c-1,1.13-2.72,1.24-3.86,0.25c-1.13-1-1.24-2.72-0.25-3.86c1-1.13,2.72-1.24,3.86-0.25
					C81.17,50.92,81.28,52.65,80.29,53.78z"/>
				<path fill="#A89C34" d="M87.75,56.14c-1,1.13-2.72,1.24-3.86,0.25c-1.13-1-1.24-2.72-0.25-3.86c1-1.13,2.72-1.24,3.86-0.25
					C88.63,53.28,88.74,55.01,87.75,56.14z"/>
			</g>
		</g>
		<linearGradient id="SVGID_9_" gradientUnits="userSpaceOnUse" x1="56.3465" y1="59.3401" x2="56.3465" y2="51.7619">
			<stop  offset="0" style="stop-color:#F3736B"/>
			<stop  offset="1" style="stop-color:#F8ADA7"/>
		</linearGradient>
		<path fill="url(#SVGID_9_)" d="M61.78,51.19c0,0-2.61,1.14-3.49,1.38c-0.88,0.24-1.84-1.2-2.71-0.88
			c-0.88,0.32-1.36,1.12-2.55,1.04c-1.2-0.08-2.08,0.08-2.24,0.56c-0.16,0.48-1.2,1.6-0.4,2c0.8,0.4,1.44-0.96,1.44-0.96h7.27
			l3.47-0.21C62.8,52.29,61.78,51.19,61.78,51.19z"/>
		<g>
			<defs>
				<path id="XMLID_12_" d="M82.27,47.61l-0.11,0.01c-0.64,0.05-1.28-0.06-1.88-0.29c-6.47-2.5-12.41,2.12-12.41,2.12l-6.09,1.74
					c0.49,0.72,0.66,1.37,0.78,2.93c2.2,0.16,10.14,0.52,14.89-0.2c3.93-0.6,5.67-2.41,6.43-3.96
					C84.44,48.83,83.53,47.52,82.27,47.61z"/>
			</defs>
			<linearGradient id="XMLID_8_" gradientUnits="userSpaceOnUse" x1="72.9195" y1="55.88" x2="72.9195" y2="44.3822">
				<stop  offset="0" style="stop-color:#E2432D"/>
				<stop  offset="1" style="stop-color:#F15C3F"/>
			</linearGradient>
			<use xlink:href="#XMLID_12_"  overflow="visible" fill="url(#XMLID_8_)"/>
			<clipPath id="XMLID_13_">
				<use xlink:href="#XMLID_12_"  overflow="visible"/>
			</clipPath>
			<path clip-path="url(#XMLID_13_)" fill="#FFC40D" d="M66.36,51.6c-1.03,1.1-2.76,1.16-3.86,0.12c-1.1-1.03-1.16-2.76-0.12-3.86
				c1.03-1.1,2.76-1.16,3.86-0.12C67.33,48.77,67.39,50.5,66.36,51.6z"/>
			<path clip-path="url(#XMLID_13_)" fill="#FFC40D" d="M76.57,54.73c-1.03,1.1-2.76,1.16-3.86,0.12c-1.1-1.03-1.16-2.76-0.12-3.86
				c1.03-1.1,2.76-1.16,3.86-0.12C77.55,51.89,77.6,53.62,76.57,54.73z"/>
			<path clip-path="url(#XMLID_13_)" fill="#FFC40D" d="M75.46,48.21c-0.48,0.51-1.28,0.54-1.79,0.06
				c-0.51-0.48-0.54-1.28-0.06-1.79c0.48-0.51,1.28-0.54,1.79-0.06C75.91,46.9,75.94,47.7,75.46,48.21z"/>
			<path clip-path="url(#XMLID_13_)" fill="#FFC40D" d="M72.91,44.61c-1.03,1.1-2.76,1.16-3.86,0.12s-1.16-2.76-0.12-3.86
				c1.03-1.1,2.76-1.16,3.86-0.12C73.88,41.78,73.94,43.51,72.91,44.61z"/>
			<path clip-path="url(#XMLID_13_)" fill="#FFC40D" d="M70.1,53.4c-0.37,0.39-0.98,0.41-1.37,0.04c-0.39-0.37-0.41-0.98-0.04-1.37
				c0.37-0.39,0.98-0.41,1.37-0.04C70.45,52.4,70.47,53.01,70.1,53.4z"/>
			<path clip-path="url(#XMLID_13_)" fill="#FFC40D" d="M68.99,47.62c-0.37,0.39-0.98,0.41-1.37,0.04
				c-0.39-0.37-0.41-0.98-0.04-1.37c0.37-0.39,0.98-0.41,1.37-0.04C69.33,46.62,69.35,47.23,68.99,47.62z"/>
			<path clip-path="url(#XMLID_13_)" fill="#FFC40D" d="M77.41,42.24c-0.37,0.39-0.98,0.41-1.37,0.04
				c-0.39-0.37-0.41-0.98-0.04-1.37c0.37-0.39,0.98-0.41,1.37-0.04C77.76,41.24,77.78,41.85,77.41,42.24z"/>
			<path clip-path="url(#XMLID_13_)" fill="#FFC40D" d="M86.36,47.77c-0.37,0.39-0.98,0.41-1.37,0.04
				c-0.39-0.37-0.41-0.98-0.04-1.37c0.37-0.39,0.98-0.41,1.37-0.04C86.71,46.77,86.73,47.38,86.36,47.77z"/>
			<path clip-path="url(#XMLID_13_)" fill="#FFC40D" d="M83.88,44.54c-1.03,1.1-2.76,1.16-3.86,0.12c-1.1-1.03-1.16-2.76-0.12-3.86
				c1.03-1.1,2.76-1.16,3.86-0.12S84.91,43.44,83.88,44.54z"/>
			<path clip-path="url(#XMLID_13_)" fill="#FFC40D" d="M84.1,52.02c-1.03,1.1-2.76,1.16-3.86,0.12c-1.1-1.03-1.16-2.76-0.12-3.86
				c1.03-1.1,2.76-1.16,3.86-0.12C85.08,49.19,85.13,50.92,84.1,52.02z"/>
			<path clip-path="url(#XMLID_13_)" fill="#FFC40D" d="M91.48,54.62c-1.03,1.1-2.76,1.16-3.86,0.12c-1.1-1.03-1.16-2.76-0.12-3.86
				c1.03-1.1,2.76-1.16,3.86-0.12C92.46,51.78,92.51,53.51,91.48,54.62z"/>
		</g>
	</g>
</g>
</svg>
