<?xml version="1.0" encoding="utf-8"?>
<!-- Generator: Adobe Illustrator 24.1.1, SVG Export Plug-In . SVG Version: 6.00 Build 0)  -->
<svg version="1.1" id="Layer_1" xmlns="http://www.w3.org/2000/svg" xmlns:xlink="http://www.w3.org/1999/xlink" x="0px" y="0px"
	 viewBox="0 0 97.21 58" enable-background="new 0 0 97.21 58" xml:space="preserve">
<g>
	<g>
		<path fill="#E84C40" d="M86.49,9.91c-0.14,1-0.76,0.82-1.09,2.16c-0.33,1.34,0.44,1.69,0.27,3.1c-0.17,1.42-0.98,1.27-0.98,3.03
			c0,2.91,4.03,2.42,4.03,2.42s2.93-0.03,2.78-2.45c-0.16-2.42-0.97-1.64-1.15-3.05c-0.17-1.42,0.94-1.75,0.61-3.08
			s-1.16-1.23-1.32-2.23c-0.08-0.5-0.36-1.61-1.56-1.61C86.86,8.19,86.57,9.28,86.49,9.91z"/>
		
			<line fill="none" stroke="#541A4B" stroke-width="0.25" stroke-linecap="round" stroke-linejoin="round" stroke-miterlimit="10" x1="88.07" y1="10.79" x2="88.07" y2="25.18"/>
		
			<line fill="none" stroke="#541A4B" stroke-width="0.25" stroke-linecap="round" stroke-linejoin="round" stroke-miterlimit="10" x1="88.07" y1="18.95" x2="86.46" y2="17.32"/>
		
			<line fill="none" stroke="#541A4B" stroke-width="0.25" stroke-linecap="round" stroke-linejoin="round" stroke-miterlimit="10" x1="88.07" y1="17.19" x2="89.57" y2="15.6"/>
		
			<line fill="none" stroke="#541A4B" stroke-width="0.25" stroke-linecap="round" stroke-linejoin="round" stroke-miterlimit="10" x1="88.07" y1="13.72" x2="86.56" y2="12.14"/>
		
			<line fill="none" stroke="#541A4B" stroke-width="0.25" stroke-linecap="round" stroke-linejoin="round" stroke-miterlimit="10" x1="88.09" y1="12.14" x2="89.16" y2="11.07"/>
	</g>
	<g>
		<path fill="#B4DFF7" d="M80.42,18.05c-0.32-0.64-0.38-1.4-0.24-2.1c0.13-0.68,0.44-1.35,0.35-2.04c-0.07-0.52-0.36-0.98-0.6-1.45
			c-0.44-0.83-0.77-1.74-0.8-2.68c-0.03-0.94,0.26-1.91,0.92-2.58c0.22-0.23,0.48-0.42,0.65-0.68c0.46-0.72,0.26-1.69,0.22-2.5
			c-0.03-0.59-0.03-1.2,0.18-1.76c0.55-1.47,2.26-1.44,3.35-0.56c0.71,0.58,1.14,1.46,1.27,2.37c0.08,0.59,0.04,1.2,0.17,1.78
			c0.14,0.62,0.48,1.02,0.8,1.55c0.57,0.94,0.68,2.14,0.3,3.16c-0.2,0.55-0.54,1.07-0.54,1.65c0,0.68,0.45,1.26,0.67,1.9
			c0.65,1.83-0.39,4.07-2.08,4.91C83.61,19.72,81.22,19.66,80.42,18.05z"/>
		<path fill="#4376BB" d="M85.91,13.74c-0.01-0.01-0.02-0.01-0.03,0c-0.35,0.31-0.47,0.89-0.74,1.27c-0.33,0.47-0.8,1.11-1.4,1.28
			c-0.04-1.39-0.12-2.79-0.19-4.18c0-0.09-0.01-0.17-0.02-0.26c0.69-0.28,1.15-1.06,1.47-1.69c0.38-0.73,0.77-1.61,0.85-2.44
			c0.01-0.06-0.08-0.08-0.11-0.03c-0.72,1.16-0.96,2.96-2.24,3.72c-0.08-1.4-0.19-2.8-0.27-4.21c-0.02-0.25-0.03-0.5-0.04-0.75
			c0.8-0.65,1.75-1.85,1.54-2.92c-0.01-0.04-0.07-0.05-0.09-0.01c-0.23,0.44-0.31,0.95-0.56,1.39c-0.24,0.42-0.55,0.8-0.91,1.12
			c-0.05-1.21-0.08-2.44-0.26-3.63c-0.01-0.1-0.16-0.07-0.16,0.02c-0.06,1.16,0.02,2.35,0.09,3.53c-0.23-0.25-0.45-0.5-0.65-0.79
			c-0.25-0.36-0.41-0.77-0.67-1.12C81.5,4.01,81.4,4.02,81.4,4.1c0.04,0.89,0.79,1.87,1.46,2.41c0.01,0.01,0.02,0.02,0.04,0.02
			c0.01,0.27,0.03,0.53,0.04,0.8c0.05,1.34,0.08,2.69,0.13,4.03c-1.17-0.82-1.86-2.15-2.77-3.21c-0.08-0.09-0.19,0.02-0.15,0.12
			c0.35,0.77,0.9,1.47,1.42,2.13c0.44,0.57,0.92,1.09,1.53,1.48c0,0.12,0.01,0.23,0.01,0.35c0.06,1.3,0.12,2.61,0.16,3.91
			c-0.32-0.25-0.62-0.52-0.91-0.81c-0.34-0.36-0.64-0.78-1.01-1.11c-0.06-0.05-0.15,0-0.13,0.08c0.29,0.99,1.25,1.82,2.06,2.4
			c0.05,1.75,0.06,3.51-0.04,5.26c-0.02,0.31,0.46,0.31,0.48,0c0.09-1.75,0.09-3.5,0.04-5.26c0.66-0.15,1.14-0.69,1.54-1.23
			C85.62,15.06,86.17,14.28,85.91,13.74z"/>
	</g>
	<path fill="#3F647D" d="M95.95,32.17c-0.3-1.32-1.22-2.47-2.58-2.97c-0.01,0-0.01,0-0.02-0.01c-1.09-0.4-1.94-1.31-2.18-2.46
		c-0.58-2.75-2.5-5.15-5.31-6.2c-4.38-1.63-9.26,0.63-10.9,5.03c0,0.01-0.01,0.02-0.01,0.03c-0.22,0.58-0.71,1.01-1.32,1.15
		c-2.05,0.46-3.85,1.92-4.62,4.06c-0.16,0.45-0.27,0.9-0.33,1.36H95.95z"/>
	<path fill="#3F647D" d="M40.26,57.84c0-0.11,0-0.22,0-0.33c-0.05-4.95-4.08-8.96-9.05-8.96c-3.65,0-6.79,2.16-8.22,5.26
		c-1.13-1.76-3.14-2.92-5.4-2.85c-3.12,0.09-5.7,2.53-5.98,5.63c-0.04,0.42-0.03,0.83,0.01,1.23H40.26z"/>
	<path fill="none" d="M55.35,24.42c0.01-0.01,0.02-0.02,0.03-0.02C55.37,24.41,55.36,24.41,55.35,24.42z"/>
	<path fill="none" d="M55.12,24.62c0.01-0.01,0.02-0.02,0.03-0.03C55.14,24.6,55.13,24.61,55.12,24.62z"/>
	<path fill="none" d="M55.15,24.59c0.07-0.06,0.14-0.12,0.2-0.17C55.3,24.47,55.23,24.52,55.15,24.59z"/>
	<path fill="none" d="M54.62,25.05c0.09-0.08,0.17-0.15,0.25-0.21C54.73,24.95,54.62,25.05,54.62,25.05z"/>
	<path fill="none" d="M55.38,24.4c0.04-0.04,0.08-0.07,0.1-0.08C55.46,24.33,55.42,24.36,55.38,24.4z"/>
	<path fill="none" d="M55.47,24.32C55.5,24.29,55.5,24.3,55.47,24.32L55.47,24.32z"/>
	<linearGradient id="SVGID_1_" gradientUnits="userSpaceOnUse" x1="49.8347" y1="19.4734" x2="44.5125" y2="14.7594">
		<stop  offset="0" style="stop-color:#F3736B"/>
		<stop  offset="1" style="stop-color:#F8ADA7"/>
	</linearGradient>
	<path fill="url(#SVGID_1_)" d="M47.29,19.45c-1.26-0.43-2.24-1.93-2.24-1.93s-0.29-0.49,0.14-0.75c0,0-0.13-0.42,0.33-0.51
		c0,0,0.07-0.51,0.51-0.55c0,0,0.11-0.62,0.68-0.42l0.49,0.42c0,0,0.17-0.24,0.11-0.51c-0.07-0.28,0.2-0.32,0.41-0.14
		c0.02,0.02,0.04,0.04,0.07,0.06c0.38,0.36,0.58,0.87,0.6,1.4l0.06,1.4C48.45,17.91,48.4,18.75,47.29,19.45"/>
	<linearGradient id="SVGID_2_" gradientUnits="userSpaceOnUse" x1="61.4158" y1="24.713" x2="48.6424" y2="16.6536">
		<stop  offset="0" style="stop-color:#303085"/>
		<stop  offset="1" style="stop-color:#4565AF"/>
	</linearGradient>
	<path fill="url(#SVGID_2_)" d="M51.95,14.61l-0.14,3.79c0,0-2.17,0.11-3.37-0.49c0,0-0.18,1.05-1.16,1.54c0,0,3.26,4.07,8.31,3.08
		l0,0C55.6,22.53,54.83,16.92,51.95,14.61"/>
	<g>
		<linearGradient id="SVGID_3_" gradientUnits="userSpaceOnUse" x1="53.886" y1="29.831" x2="66.5833" y2="45.9498">
			<stop  offset="0" style="stop-color:#060707"/>
			<stop  offset="1" style="stop-color:#1A232E"/>
		</linearGradient>
		<path fill="url(#SVGID_3_)" d="M67.98,42.6c-2.1-0.9-4.26,0.37-4.26,0.37l-0.81-5.99c-2.1,0.49-3.61,1.57-4.37,2.24
			c0.89,2.36,1.82,4.78,2.26,5.63c1.19,2.33,3.57,1.6,3.57,1.6l5.44-0.85c-0.01-1.05-0.26-1.93-0.47-2.5
			C68.9,42.96,68.44,42.79,67.98,42.6z"/>
		<linearGradient id="SVGID_4_" gradientUnits="userSpaceOnUse" x1="60.7946" y1="33.8378" x2="62.3153" y2="36.2708">
			<stop  offset="0" style="stop-color:#004C46"/>
			<stop  offset="1" style="stop-color:#00654D"/>
		</linearGradient>
		<path fill="url(#SVGID_4_)" d="M62.49,33.86c0.41-3.57-0.14-6.5-0.14-6.5l-5.81,6.41c0,0,0.96,2.68,2,5.44
			c1.16-0.5,2.81-1.14,4.78-2.33L62.49,33.86z"/>
		<linearGradient id="SVGID_5_" gradientUnits="userSpaceOnUse" x1="67.1296" y1="44.3404" x2="74.3562" y2="44.3404">
			<stop  offset="0" style="stop-color:#F3736B"/>
			<stop  offset="1" style="stop-color:#F8ADA7"/>
		</linearGradient>
		<path fill="url(#SVGID_5_)" d="M72.81,43.76c0,0-1.56-0.07-3.47-0.67c0.21,0.57,0.46,1.44,0.47,2.5l4.17-0.66L72.81,43.76z"/>
		<linearGradient id="SVGID_6_" gradientUnits="userSpaceOnUse" x1="54.7285" y1="30.0106" x2="48.0377" y2="50.2351">
			<stop  offset="0" style="stop-color:#060707"/>
			<stop  offset="1" style="stop-color:#4A5D6B"/>
		</linearGradient>
		<path fill="url(#SVGID_6_)" d="M48.85,37.43c-0.65,1.46-0.96,7.25-1.1,11.25c0.49,0.08,1.37,0.19,2.44,0.11
			c0.35-1.25,0.83-2.61,1.5-3.72c1.74-2.93,0.09-5.26,0.09-5.26l4.39-3.77c-2.2-0.84-3.74-2.08-4.53-2.81
			C50.33,34.81,49.37,36.27,48.85,37.43z"/>
		<linearGradient id="SVGID_7_" gradientUnits="userSpaceOnUse" x1="54.8603" y1="38.212" x2="59.0421" y2="27.4915">
			<stop  offset="0" style="stop-color:#00654D"/>
			<stop  offset="1" style="stop-color:#009175"/>
		</linearGradient>
		<path fill="url(#SVGID_7_)" d="M62.04,26.09c-1.64,0.25-5.84,2.54-5.84,2.54c-1.78,1.53-3.32,3.11-4.56,4.59
			c0.78,0.73,2.97,2.4,5.17,3.24l4.22-2.99c0.47-0.34,0.9-0.74,1.22-1.23C64.05,29.46,62.04,26.09,62.04,26.09z"/>
		<linearGradient id="SVGID_8_" gradientUnits="userSpaceOnUse" x1="48.925" y1="47.0427" x2="48.925" y2="52.419">
			<stop  offset="0" style="stop-color:#F3736B"/>
			<stop  offset="1" style="stop-color:#F8ADA7"/>
		</linearGradient>
		<path fill="url(#SVGID_8_)" d="M47.76,48.68c-0.08,2.26-0.1,3.95-0.1,3.95l0.23,0.27c0.36,0.41,1,0.4,1.34-0.04l0.2-0.26
			c0,0,0.2-1.77,0.77-3.81C49.12,48.87,48.24,48.76,47.76,48.68z"/>
		<g>
			<linearGradient id="SVGID_9_" gradientUnits="userSpaceOnUse" x1="76.6594" y1="47.485" x2="74.1503" y2="41.5546">
				<stop  offset="0" style="stop-color:#303085"/>
				<stop  offset="1" style="stop-color:#4565AF"/>
			</linearGradient>
			<path fill="url(#SVGID_9_)" d="M75.08,42.84c-0.28-0.28-0.62-0.49-0.99-0.58c-0.14-0.03-0.28-0.05-0.43-0.05
				c-0.02,0.03-0.03,0.07-0.05,0.1c-0.13,0.35-0.74,0.75-0.87,1.11c-0.04,0.12-0.01,0.25,0.08,0.34l1.17,1.17
				c0,0-0.11,0.81,0.76,0.73c0,0,2.23,0.75,3.16,1.22c0.25,0.13,0.55,0.05,0.72-0.15c-0.02-0.19-0.14-0.5-0.6-0.96L75.08,42.84z"/>
			<path fill="#6392AA" d="M74.08,42.26c0.38,0.09,0.72,0.3,0.99,0.58l2.93,2.93c0.46,0.46,0.58,0.77,0.6,0.96
				c0.04-0.05,0.07-0.1,0.09-0.16c0.09-0.24,0.07-0.58-0.24-1.03l-3.34-3.34c-0.16-0.16-0.36-0.28-0.58-0.33
				c-0.2-0.04-0.44-0.04-0.67,0.1c-0.1,0.06-0.17,0.14-0.22,0.24C73.8,42.21,73.95,42.23,74.08,42.26z"/>
		</g>
		<g>
			<linearGradient id="SVGID_10_" gradientUnits="userSpaceOnUse" x1="46.4582" y1="56.0145" x2="46.4582" y2="52.3641">
				<stop  offset="0" style="stop-color:#303085"/>
				<stop  offset="1" style="stop-color:#4565AF"/>
			</linearGradient>
			<path fill="url(#SVGID_10_)" d="M48.36,54.88c0.39,0,0.78-0.09,1.11-0.29c0.12-0.07,0.24-0.16,0.34-0.27
				c-0.01-0.04-0.02-0.07-0.04-0.1c-0.16-0.34-0.01-1.06-0.17-1.4c-0.05-0.11-0.17-0.19-0.29-0.19h-1.66c0,0-0.49-0.65-1.05,0.02
				c0,0-2.11,1.04-3.1,1.37c-0.26,0.09-0.43,0.35-0.4,0.61c0.15,0.12,0.46,0.25,1.11,0.25H48.36z"/>
			<path fill="#82A8CB" d="M49.47,54.59c-0.33,0.2-0.72,0.29-1.11,0.29h-4.14c-0.65,0-0.96-0.13-1.11-0.25
				c0.01,0.06,0.02,0.12,0.05,0.18c0.11,0.23,0.36,0.46,0.9,0.56h4.73c0.23,0,0.45-0.05,0.65-0.18c0.17-0.11,0.34-0.28,0.41-0.54
				c0.03-0.11,0.02-0.22-0.01-0.33C49.71,54.43,49.59,54.52,49.47,54.59z"/>
		</g>
	</g>
	<linearGradient id="XMLID_3_" gradientUnits="userSpaceOnUse" x1="64.7267" y1="23.7699" x2="50.6608" y2="12.5932">
		<stop  offset="0" style="stop-color:#4565AF"/>
		<stop  offset="1" style="stop-color:#6B91CB"/>
	</linearGradient>
	<path id="XMLID_2_" fill="url(#XMLID_3_)" d="M52.26,9.28c-0.85,1.56-1.68,3.08-0.14,6.77c1.32,3.16,5.67,10.38,4.08,12.58
		c2.6-1.25,4.21-1.88,5.84-2.54l0.79-12.32c0-3.51-2.96-6.12-6.26-7.33L56,5.77C56,5.77,53.08,6.43,52.26,9.28z"/>
	<linearGradient id="SVGID_11_" gradientUnits="userSpaceOnUse" x1="71.0314" y1="20.8046" x2="59.0183" y2="9.0957">
		<stop  offset="0" style="stop-color:#4565AF"/>
		<stop  offset="1" style="stop-color:#6B91CB"/>
	</linearGradient>
	<path fill="url(#SVGID_11_)" d="M56.92,7.5L56.92,7.5c-0.24,0.06-0.47,0.15-0.68,0.28c-0.64,0.4-1.06,1.09-1.07,1.86
		c-0.01,0.73,0.23,1.64,1.09,2.56c0.62,0.67,1.59,0.88,2.45,0.58l0.43-0.15c0,0,5.31,2.11,6.93,1.72c-0.98,1.47,0.25,5.99-1.52,8.35
		l1.72,1.08c0,0,3.68-5.11,4.08-11c0,0,0.34-0.98-1.13-1.77c-2.07-1.1-6.19-2.56-8.59-3.38C59.43,7.22,58.14,7.17,56.92,7.5z"/>
	<linearGradient id="SVGID_12_" gradientUnits="userSpaceOnUse" x1="65.3976" y1="20.9442" x2="63.0406" y2="25.7342">
		<stop  offset="0" style="stop-color:#F3736B"/>
		<stop  offset="1" style="stop-color:#F8ADA7"/>
	</linearGradient>
	<path fill="url(#SVGID_12_)" d="M64.55,22.7l-0.24,0.09c-0.26,0.09-0.54,0.12-0.82,0.09l-0.46-0.06c-0.27-0.03-0.45,0.08-0.64,0.27
		c0,0-0.43,0.32-0.59,0.49c-0.16,0.17-0.15,0.55,0.2,0.54c0.54-0.02,0.59,0.1,0.56,0.18c0,0-0.33,0.29-0.42,0.48
		c-0.09,0.18-0.16,0.31,0.04,0.44c0.12,0.08,0.3,0.1,0.45,0.2c0.12,0.08,0.21,0.22,0.33,0.3c0.18,0.11,0.25,0.12,0.41,0.17
		c0.12,0.04,0.14,0.13,0.26,0.22c0.17,0.12,2.39-1.09,2.64-2.33C66.29,23.68,64.55,22.7,64.55,22.7z"/>
	<linearGradient id="SVGID_13_" gradientUnits="userSpaceOnUse" x1="55.5178" y1="8.4378" x2="49.638" y2="3.9773">
		<stop  offset="0" style="stop-color:#F3736B"/>
		<stop  offset="1" style="stop-color:#F8ADA7"/>
	</linearGradient>
	<path fill="url(#SVGID_13_)" d="M50.8,3.37c0,0-0.45,2.16,0.5,3.56c0.18,0.27,0.56,0.3,0.81,0.09l0.4-0.35l0.88,0.93L52.77,9.1
		c0,0-0.04,0.16,0.08,0.82c0.9-1.99,2.1-3.72,2.1-3.72l-0.76-0.64l-0.81-1.91l-0.08,0.67c0,0-0.07-1.87-1.56-1.87
		C51.52,2.44,50.8,3.37,50.8,3.37z"/>
	<linearGradient id="SVGID_14_" gradientUnits="userSpaceOnUse" x1="52.4963" y1="4.2366" x2="52.4963" y2="0.1281">
		<stop  offset="0" style="stop-color:#854E34"/>
		<stop  offset="1" style="stop-color:#A89C34"/>
	</linearGradient>
	<path fill="url(#SVGID_14_)" d="M50.36,3.41c0.23,0.03,0.44-0.04,0.44-0.04s0.6,0.49,1.42,0.39C52.37,3.74,52.5,3.85,52.53,4
		c0.01,0.09,0.05,0.18,0.11,0.26c0.07,0.07,0.19,0.06,0.24-0.02c0.09-0.14,0.25-0.29,0.41,0.07c0,0,0.23,0.61-0.14,1.01l0.39-0.17
		c0.04-0.02,0.09-0.01,0.12,0.01l0.52,0.39l0.04-0.25c0.07-0.45,0.25-0.88,0.5-1.26c0.23-0.37,0.36-0.89,0.23-1.22
		c-0.87-2.25-3.14-1.92-3.73-1.2c-0.49,0.6-0.57,0.82-0.94,0.96C49.85,2.73,49.91,3.36,50.36,3.41z"/>
	<path fill="#3F647D" d="M97.19,58c0.01-0.2,0.02-0.39,0.03-0.59c0.12-7.71-6.66-13.99-15.04-13.99c-3.58,0-6.86,1.14-9.44,3.05
		c-2.3,1.7-5.36,2.35-8.2,1.6c-1.01-0.27-2.09-0.4-3.2-0.37c-5.51,0.15-9.98,4.31-10.06,9.37c0,0.31,0.01,0.62,0.04,0.93H97.19z"/>
</g>
</svg>
